<?xml version="1.0" encoding="utf-8" ?><svg xmlns="http://www.w3.org/2000/svg" xmlns:xlink="http://www.w3.org/1999/xlink" width="512" height="261" viewBox="0 0 512 261"><path fill="#76E" d="M121.489 64.2907C123.514 64.1966 125.642 64.2676 127.678 64.3031C128.115 65.6967 128.511 67.2256 128.823 68.651C130.349 75.616 133.951 83.5583 134.764 90.5525C136.748 82.171 138.195 72.6988 140.533 64.4572C142.352 64.3193 145.638 64.4613 147.668 64.4321C147.421 66.7419 145.541 72.5533 144.829 75.1892C142.935 82.4751 140.992 89.748 138.998 97.0074C136.552 97.0518 133.289 96.791 130.79 96.6625C130.002 93.4864 128.915 90.0912 127.996 86.9082C126.979 83.3829 126.044 79.408 124.898 75.9628C124.823 75.2752 124.785 74.1747 124.314 73.791C123.75 75.0221 122.845 78.7072 122.403 80.2412C120.852 85.8354 119.25 91.4154 117.598 96.9807C115.068 97.0679 112.015 96.9961 109.447 96.9943C108.506 94.027 107.785 89.7916 106.931 86.6694C104.935 79.3722 103.293 71.6869 101.332 64.4192L108.552 64.4279C108.938 66.9873 113.509 89.3194 114.066 89.8722C114.755 88.915 114.976 86.6006 115.293 85.3911C116.076 82.3977 120.133 65.6793 121.382 64.3909C121.416 64.3559 121.453 64.3241 121.489 64.2907Z"/><defs><linearGradient id="gradient_0" gradientUnits="userSpaceOnUse" x1="266.46671" y1="142.48839" x2="248.22008" y2="115.89811"><stop offset="0" stop-color="#313648"/><stop offset="1" stop-color="#39527E"/></linearGradient></defs><path fill="url(#gradient_0)" d="M250.792 115.852C254.803 115.722 266.938 114.995 269.822 117.391C271.386 118.869 272.438 122.878 272.235 124.987C271.539 132.211 275.261 141.945 264.812 142.28C259.108 142.331 253.327 142.534 247.645 142.163C244.484 141.957 242.546 137.807 242.672 135.093C243.041 127.17 239.579 116.671 250.792 115.852ZM250.492 136.789C254.46 137.838 260.345 137.845 264.289 136.822C266.738 134.744 265.514 124.652 264.626 121.657C260.552 120.651 254.481 120.843 250.231 121.059C248.868 123.847 249.006 133.869 250.492 136.789Z"/><defs><linearGradient id="gradient_1" gradientUnits="userSpaceOnUse" x1="194.95052" y1="143.86096" x2="184.00005" y2="115.07352"><stop offset="0" stop-color="#38618F"/><stop offset="1" stop-color="#4179BB"/></linearGradient></defs><path fill="url(#gradient_1)" d="M183.315 115.89C185.9 115.786 189.465 115.989 191.915 115.767C204.714 114.607 202.979 121.107 202.995 131.378C199.561 131.488 195.619 131.3 192.125 131.333C189.266 131.361 185.335 131.507 182.618 131.292C182.806 133.341 182.913 134.73 183.4 136.716C186.405 137.494 189.98 137.305 193.125 137.308C195.854 137.339 198.743 137.421 201.458 137.313C201.485 138.794 201.724 140.505 201.009 141.72C200.107 142.551 199.28 142.429 198.154 142.369C192.765 142.08 187.279 142.56 181.907 142.168C177.512 141.848 175.89 138.868 175.612 134.771C175.362 131.085 175.439 127.048 175.738 123.353C176.412 117.756 177.909 116.184 183.315 115.89ZM182.258 126.779C184.622 126.393 190.44 126.598 193.187 126.56C194.157 126.578 195.443 126.745 196.172 126.195C196.675 125.32 196.776 125.207 196.48 124.111C196.235 123.167 195.921 122.242 195.542 121.343C192.557 120.757 188.184 120.911 185.043 121.04C182.203 121.813 182.56 124.157 182.258 126.779Z"/><path fill="#2C2D30" d="M333.933 115.86C350.923 115.974 352.941 112.784 352.961 131.464C348.874 131.397 344.786 131.379 340.699 131.411C338.31 131.43 334.858 131.569 332.609 131.29C332.982 133.912 332.856 137.445 336.393 137.368C338.629 137.318 340.838 137.268 343.081 137.27L351.254 137.264L351.292 142.458C346.997 142.177 331.037 143.193 328.492 141.099C326.44 139.412 325.887 136.561 325.692 134.042C325.421 130.532 325.054 120.556 327.341 117.953C329.013 116.05 331.596 116.003 333.933 115.86ZM333.213 121.231C332.426 123.549 332.475 124.218 332.438 126.753L342.359 126.63L346.312 126.491C346.085 120.128 345.159 120.709 339.237 120.813C338.298 120.83 337.316 120.827 336.378 120.851C335.395 120.96 334.168 121.061 333.213 121.231Z"/><path fill="#76E" d="M188.836 71.5439C189.428 71.5142 190.072 71.5107 190.668 71.5045C206.378 71.342 208.215 69.3908 208.267 86.6395L188.924 86.5202C189.763 93.801 191.804 91.7705 198.313 91.8106L206.598 91.8101C206.514 93.5581 206.535 95.4851 206.521 97.2496C199.71 96.6842 191.556 98.0858 185.221 95.9863C181.69 94.816 182.413 84.5216 182.457 81.5132C182.538 76.0011 182.915 72.8522 188.836 71.5439ZM199.603 82.2819C200.817 82.3197 200.785 82.5282 201.537 81.9398C201.967 80.6679 201.908 77.4079 200.57 77.004C197.749 76.1528 194.097 76.5372 191.12 76.5449C188.262 77.178 189.032 79.7168 188.802 82.3339C192.402 82.2892 196.002 82.2718 199.603 82.2819Z"/><path fill="#76E" d="M300.482 62.9765C302.276 62.8441 305.074 62.9557 307.055 62.8997L307.065 71.5941C312.252 70.9843 325.411 69.9543 325.881 77.3774C326.286 83.7756 325.971 90.6233 326.115 97.1081C323.852 97.0442 322.292 97.034 320.044 97.1992C319.712 92.7674 319.788 87.8099 319.776 83.3232C319.737 80.1937 319.911 77.0761 315.848 76.949C312.895 76.8566 309.928 77.2898 306.95 77.1126C307.017 83.583 307.348 90.6959 306.979 97.0938C304.884 97.0251 302.65 97.1185 300.543 97.1699C300.385 85.7727 300.365 74.3741 300.482 62.9765Z"/><path fill="#76E" d="M151.516 62.9977L158.22 62.9393C157.929 65.4267 158.02 69.3838 158.022 71.9964C160.772 71.3986 163.353 71.5519 166.051 71.4372C173.831 71.1064 177.567 73.0046 177.517 81.3631C177.486 86.5105 177.496 91.9842 177.513 97.1594C175.715 97.0324 173.134 97.1293 171.274 97.1481C171.118 92.8296 171.025 88.5089 170.996 84.1876C170.776 75.8249 169.521 76.6594 161.44 77.0438C160.361 77.0951 159.213 77.1666 158.127 77.228C158.431 83.1364 158.236 91.0031 158.241 97.0418C156.077 97.0533 153.913 97.0844 151.749 97.1352C151.683 90.1115 151.678 83.0873 151.734 76.0634C151.741 72.0322 151.819 66.9371 151.516 62.9977Z"/><defs><linearGradient id="gradient_2" gradientUnits="userSpaceOnUse" x1="379.52878" y1="98.003006" x2="392.00189" y2="68.71843"><stop offset="0" stop-color="#7778EB"/><stop offset="1" stop-color="#6F55F8"/></linearGradient></defs><path fill="url(#gradient_2)" d="M375.486 63.0946L381.343 63.0428C381.213 65.4611 381.007 80.6618 381.923 81.7843C384.596 82.3061 389.251 72.6914 391.86 71.7274C393.126 71.2598 397.098 71.4855 398.581 71.5168C397.526 73.2042 395.289 75.5901 393.952 77.2001C392.174 79.3401 391.115 80.8114 389.578 83.1574C392.069 86.5809 394.909 90.0379 397.566 93.3345C398.508 94.7015 399.71 95.878 400.934 96.9865C398.167 97.3419 396.068 97.1747 393.295 96.9413C389.476 94.5985 386.714 89.0695 383.276 86.2084C382.75 85.7702 382.36 85.8468 381.829 85.9788C381.117 87.3365 381.466 95.0996 381.498 97.1685C379.388 97.0338 377.179 97.164 375.058 97.247C374.843 88.4686 374.99 72.9058 375.098 63.5038C375.248 63.3453 375.378 63.2089 375.486 63.0946Z"/><path fill="#3B669E" d="M206.023 115.747C208.658 115.912 211.085 115.726 213.882 115.947C215.077 118.972 220.987 136.753 223.401 136.857C224.696 135.987 229.734 119.391 231.85 116.093L231.912 115.998C234.488 115.838 236.289 115.897 238.862 116.044L237.501 119.579C234.62 126.112 232.676 133.063 229.691 139.582C228.253 143.237 224.589 142.129 221.509 142.296C218.487 142.544 216.334 141.828 215.23 138.703C212.735 131.638 207.832 122.764 206.023 115.747Z"/><path fill="#76E" d="M350.123 71.5597C354.771 71.3504 363.661 70.565 367.199 73.7368C367.968 74.4255 368.96 76.234 369.077 77.2658C369.812 83.7703 369.51 90.6544 369.511 97.2402C367.599 97.1344 365.218 97.2069 363.268 97.217C363.102 93.1062 363.239 81.2422 362.614 78.0508C361.258 76.3406 352.629 77.1387 350.289 77.263C349.883 83.9903 350.026 90.3408 350.096 97.0767C348.017 97.0369 345.937 97.0627 343.86 97.154C343.533 91.5588 343.291 78.9822 344.99 74.0717C346.819 72.2673 347.683 71.9765 350.123 71.5597Z"/><path fill="#76E" d="M218.448 71.5511C220.836 71.4303 224.238 71.5638 226.382 71.4454C237.9 70.8095 238.657 75.236 238.339 85.2802C238.235 88.5701 238.303 93.5294 238.281 97.0924C236.268 97.0828 234.255 97.0869 232.242 97.1046C231.91 92.2866 232.559 81.3069 231.001 77.5657C226.808 76.3571 223.615 76.8167 219.327 77.186C218.869 83.7611 219.145 90.49 219.22 97.0958L212.841 97.1582C212.704 92.9099 211.995 77.544 213.778 74.4722C214.796 72.7169 216.579 72.0341 218.448 71.5511Z"/><path fill="#313748" d="M290.679 115.688C292.095 115.792 297.314 115.52 297.897 116.136C300.399 118.779 305.036 135.921 306.738 137.179C308.451 136.374 309.731 130.327 310.511 128.373C312.101 124.388 313.183 119.778 315.12 115.937C317.515 115.734 320.017 115.798 322.428 115.814C321.88 116.932 321.463 118.004 321.004 119.156C319.805 122.557 313.617 140.79 311.463 141.895C309.754 142.773 304.194 142.566 302.392 141.901C301.438 141.549 300.868 140.961 300.332 140.114C298.743 137.602 297.852 134.461 296.83 131.678C294.877 126.363 293.023 120.843 290.679 115.688Z"/><path fill="#76E" d="M284.538 65.6127L287.75 65.5109C287.757 67.6577 287.733 69.8045 287.681 71.9506C290.592 71.8041 293.935 71.8093 296.872 71.7728C296.746 73.8424 296.779 75.1174 296.892 77.1949C294.169 76.931 290.405 77.0173 287.6 77.0034C288.035 82.1161 286.954 86.2617 288.518 91.5517C291.344 92.1246 294.261 91.6043 296.779 92.1049C297.132 92.828 297.07 93.9663 297.09 94.8126L297.276 97.231C292.936 96.8471 286.188 97.9619 282.741 95.0765C281.423 93.9737 281.403 91.459 281.413 89.8508C281.439 85.5995 281.412 81.3299 281.517 77.0695L278.01 77.0603C277.95 75.4052 277.841 73.7021 277.755 72.0436C278.936 71.9731 280.367 72.0201 281.568 72.0276C281.418 69.7336 281.317 68.1191 281.432 65.8372L284.538 65.6127Z"/><path fill="#313748" d="M279.804 106.637C281.765 106.542 283.904 106.557 285.881 106.534C285.864 114.627 285.92 122.721 286.049 130.814C286.068 133.678 286.257 139.736 285.935 142.397C283.833 142.36 281.731 142.388 279.632 142.482C279.389 139.769 279.423 107.382 279.804 106.637Z"/><path fill="#3B669E" d="M148.759 109.131C150.586 108.959 153.496 109.026 155.494 108.95L155.462 131.166C155.457 133.811 155.595 140.184 155.251 142.458C153.104 142.337 150.876 142.425 148.719 142.475C148.61 139.157 148.209 110.624 148.759 109.131Z"/><path fill="#76E" d="M263.191 64.3951C263.705 64.9149 263.498 93.7958 263.511 97.1653C261.387 97.0459 259.259 97.0696 257.139 97.2361C257.077 97.1791 257.011 97.1258 256.952 97.065C256.115 96.1944 256.549 67.3554 256.563 64.5081C258.723 64.418 261.011 64.4365 263.191 64.3951Z"/><path fill="#2C2D30" d="M289.241 158.914C290.127 158.918 291.184 158.812 291.894 159.281C292.878 160.455 292.415 162.384 292.282 164.007C295.29 163.991 298.319 164.02 301.309 164.342C301.974 164.793 302.787 165.345 303.019 166.117C303.872 168.962 304.11 173.875 302.498 176.338C299.385 177.648 288.835 179.271 289.085 173.457C289.251 169.607 288.519 162.52 289.241 158.914ZM292.537 174.363C295.605 174.712 296.859 174.745 299.922 174.466C300.176 172.231 300.082 169.359 299.852 167.123C296.774 166.558 295.339 166.902 292.448 166.763L292.537 174.363Z"/><path fill="#2C2D30" d="M162.063 164.05C164.651 164.002 169.104 163.683 171.255 164.796C173.916 166.173 173.242 173.519 172.021 175.76C171.375 176.946 170.56 177.117 169.436 177.437C167.461 177.491 161.672 177.903 160.181 176.944C157.638 175.308 157.93 167.979 159.336 165.565C159.949 164.513 160.962 164.297 162.063 164.05ZM162.177 174.409C163.51 174.539 165.364 174.795 166.65 174.643C168.007 174.524 168.085 174.729 169.048 174.048C170.13 172.09 169.47 169.688 169.463 167.201C168.072 167.081 165.915 166.84 164.583 166.873C163.568 166.966 162.835 166.811 162.219 167.55C161.136 168.851 161.897 172.744 162.177 174.409Z"/><path fill="#2C2D30" d="M220.297 164.059C222.862 163.984 227.705 163.652 229.823 164.7C232.182 165.867 231.917 173.685 230.841 175.823C230.349 176.799 229.613 177 228.693 177.289C226.661 177.588 221.372 177.758 219.374 176.998C218.673 176.732 218.146 176.015 217.899 175.242C217.072 172.652 216.956 168.216 217.941 165.667C218.323 164.677 219.4 164.38 220.297 164.059ZM225.188 174.54C226.015 174.532 227.19 174.632 227.837 174.215C228.124 172.804 228.225 168.401 227.534 167.165C226.55 166.769 224.474 166.723 223.426 166.859C222.604 166.917 221.485 166.901 220.841 167.356C220.238 168.807 220.361 172.334 220.819 173.862C221.695 174.819 223.913 174.622 225.188 174.54Z"/><path fill="#76E" d="M332.936 71.8894L338.175 71.8776C337.632 79.655 338.239 87.8026 338.237 95.5935C338.236 96.4961 338.245 96.6271 337.654 97.2441C335.926 97.0913 333.365 97.4302 331.906 96.8709C330.726 94.4368 332.033 77.8791 331.399 74.1819C331.151 72.734 331.571 72.0929 332.936 71.8894Z"/><defs><linearGradient id="gradient_3" gradientUnits="userSpaceOnUse" x1="141.43842" y1="172.94917" x2="125.3229" y2="164.03038"><stop offset="0" stop-color="#201E24"/><stop offset="1" stop-color="#3D3C3E"/></linearGradient></defs><path fill="url(#gradient_3)" d="M140.18 160.055L140.509 162.971C136.899 163.026 133.289 163.021 129.679 162.958C129.854 164.647 129.94 165.273 129.722 166.99C132.572 166.934 136.391 167.221 139.447 167.247C139.488 168.093 139.649 169.051 139.197 169.732C137.921 170.768 134.759 170.259 132.813 170.238L129.737 170.229C129.771 171.503 129.732 172.914 129.724 174.2C131.876 174.453 139.225 174.269 140.084 174.88C140.194 175.774 140.302 176.23 140.073 177.105C139.028 177.795 128.516 177.508 126.531 177.5C126.452 172.972 126.097 164.223 126.483 160.069C130.459 159.854 136.081 160.044 140.18 160.055Z"/><defs><linearGradient id="gradient_4" gradientUnits="userSpaceOnUse" x1="270.45023" y1="177.28499" x2="272.83499" y2="163.76532"><stop offset="0" stop-color="#17191E"/><stop offset="1" stop-color="#343236"/></linearGradient></defs><path fill="url(#gradient_4)" d="M267.234 164.049C269.696 163.993 276.055 163.399 277.715 164.826C278.089 165.664 278.061 165.332 277.954 166.142C276.3 167.461 270.026 165.917 268.297 167.142C267.996 167.871 267.877 168.055 268.054 168.853C270.049 170.569 276.762 167.536 278.156 171.127C278.937 173.138 278.946 176.171 276.661 177.153C274.69 177.652 266.59 177.935 265.158 176.545C264.23 172.531 273.366 176.31 275.165 174.161C275.341 173.429 275.373 173.324 275.128 172.618C272.709 170.563 263.064 175.185 265.18 165.932C265.412 164.916 266.391 164.464 267.234 164.049Z"/><path fill="#2C2D30" d="M316.507 174.399C316.505 172.663 316.224 165.196 316.971 164.266C317.897 163.865 319.222 163.989 320.265 164.005L320.304 167.8C320.297 170.282 321.075 177.082 317.611 177.257C314.238 177.427 305.989 178.982 306.288 173.465C306.396 171.462 305.663 165.493 306.719 164.158C307.919 164.067 308.24 163.905 309.147 164.472C310.435 166.522 309.078 169.181 309.243 171.534C309.52 175.504 313.726 174.653 316.507 174.399Z"/><path fill="#2C2D30" d="M182.721 164.038C183.676 163.958 184.631 163.801 185.53 164.11C186.2 164.939 186.076 172.265 186.334 174.352C187.233 174.482 188.138 174.576 189.045 174.636C195.193 175.073 192.748 170.464 192.743 166.729C192.739 163.816 194.33 163.984 196.576 164.058L196.485 166.687C196.439 168.809 197.127 175.736 195.272 176.74C193.062 177.936 184.544 178.149 183.194 175.719C182.345 174.191 182.275 165.674 182.721 164.038Z"/><path fill="#2C2D30" d="M365.522 164.033C376.082 163.947 376.948 162.967 376.485 173.847C376.417 175.439 377.023 176.496 375.499 177.423C374.782 177.456 374.225 177.564 373.608 177.239C373.104 174.584 373.422 170.585 373.046 167.555C372.111 166.588 367.96 166.796 366.452 166.774C366.584 170.117 366.478 174.123 366.473 177.517L363.031 177.514C362.997 174.208 362.561 168.804 363.487 165.755C363.805 164.705 364.576 164.403 365.522 164.033Z"/><path fill="#2C2D30" d="M236.632 164.074C239.575 164.003 243.695 163.584 246.357 164.631C248.663 165.538 248.38 176.349 247.66 177.35C246.84 177.739 247.033 177.793 246.24 177.697C243.97 176.059 245.581 170.483 244.434 167.131C242.555 166.724 239.803 166.773 237.898 166.802C237.836 169.829 238.116 174.099 237.908 176.843C237.168 177.742 235.594 177.667 234.712 177.048C234.396 175.478 234.53 167.071 234.86 165.413C235.42 164.575 235.723 164.499 236.632 164.074Z"/><path fill="#2C2D30" d="M141.462 163.941C142.283 163.932 144.538 163.848 145.141 164.224C147.174 165.488 147.887 173.11 149.359 174.064C150.442 173.444 151.975 166.474 153.224 164.021C154.471 163.949 155.523 163.673 156.382 164.4C156.583 165.199 156.248 165.853 155.976 166.668C155.064 168.707 152.891 176.876 151.079 177.469C145.221 179.387 143.084 168.245 141.462 163.941Z"/><path fill="#2C2D30" d="M200.272 160.933C201.192 160.908 202.44 160.737 203.129 161.257C203.619 161.949 203.518 163.044 203.529 163.928C204.947 163.932 208.97 163.709 208.896 165.895C207.851 167.496 205.006 166.955 203.439 166.699C203.747 172.147 201.478 174.825 208.348 174.662C208.46 175.676 208.51 176 208.392 177.01C207.18 178.1 201.975 177.318 201.03 176.293C199.66 174.808 200.405 169.406 200.211 167.253C199.586 166.281 199.475 167.328 198.11 166.414C197.831 165.682 197.951 165.312 198.075 164.555C198.682 163.919 198.662 164.11 199.755 163.964C200.158 163.452 200.009 162.06 200.272 160.933Z"/><path fill="#2C2D30" d="M340.986 166.724C341.111 171.594 339.435 174.571 345.481 174.771C346.462 175.656 346.349 176.443 345.466 177.327C335.657 179.017 338.333 173.456 337.609 167.377C337.513 166.571 336.567 167.034 335.692 166.519C335.301 165.835 335.428 165.392 335.516 164.62C336.074 163.937 336.55 164.072 337.611 163.955C338.156 163.055 337.163 159.377 340.453 161.038C341.174 161.912 341.032 162.69 341.256 164.018C341.207 164.752 341.16 166.066 340.986 166.724Z"/><path fill="#76E" d="M403.999 90.0501C405.606 89.8543 408.857 89.9315 410.535 89.9349L406.21 101.838C405.476 103.161 402.522 102.791 401.153 102.777C401.284 100.042 403.312 93.349 403.999 90.0501Z"/><path fill="#2C2D30" d="M330.276 158.754C331.38 158.74 332.577 158.592 333.396 159.243C333.547 160.605 333.627 163.939 333.522 165.217C333.349 167.339 333.933 176.584 332.995 177.497C332.091 177.543 331.248 177.698 330.496 177.235C329.798 176.192 329.913 160.85 330.276 158.754Z"/><path fill="#2C2D30" d="M176.304 158.786L176.42 158.781C177.464 158.737 178.576 158.559 179.345 159.265C179.574 160.823 179.616 176.274 179.33 177.652C178.511 177.488 177.106 177.535 176.229 177.534C176.22 175.049 175.887 160.259 176.304 158.786Z"/><path fill="#313748" d="M231.451 223.61L231.795 223.896C232.633 225.527 230.973 227.679 233.868 226.918C238.891 225.598 239.886 230.957 237.748 234.24C232.612 236.651 230.593 233.474 230.947 228.649C231.081 226.822 230.87 225.477 231.451 223.61ZM236.921 233.348C239.305 228.787 236.243 227.98 232.497 228.006C231.43 231.539 232.254 235.429 236.921 233.348Z"/><path fill="#33424B" d="M296.77 223.602C297.201 223.955 297.414 223.993 297.423 224.634C297.446 226.313 297.861 233.559 297.103 234.617C295.652 234.92 292.927 234.874 291.501 234.394C290.638 233.256 290.651 232.968 290.21 231.741C288.625 227.34 292.604 226.646 296.208 227.029C296.581 226.524 296.459 224.882 296.724 223.785L296.77 223.602ZM295.065 233.766C295.684 233.553 296.154 233.539 296.35 232.988C296.829 231.636 296.453 229.714 296.483 228.236C294.758 228.02 294.083 227.953 292.338 228.033C291.449 228.852 291.094 229.636 291.067 230.883C291.047 231.726 291.379 232.539 291.983 233.127C292.916 234.031 293.887 233.951 295.065 233.766Z"/><path fill="#2C2D30" d="M361.481 135.09C362.77 135.118 364.403 135.017 365.436 135.794C366.224 136.387 366.733 137.279 366.842 138.259C367.105 140.438 366.082 142.139 363.812 142.312C359.556 142.49 356.823 142.337 359.101 136.105C359.377 135.352 360.69 135.21 361.481 135.09Z"/><path fill="#2C2D30" d="M274.118 226.829C276.356 226.654 277.804 227.131 278.588 229.419C279.027 230.705 278.914 232.115 278.275 233.313C277.682 234.441 277.155 234.554 275.981 234.917C270.72 235.557 269.918 228.607 274.118 226.829ZM276.712 233.659C278.042 232.623 278.256 230.287 277.168 229.015C276.034 227.689 275.196 227.941 273.654 228.017C271.536 230.12 272.186 234.646 276.712 233.659Z"/><path fill="#2C2D30" fill-opacity="0.98823529" d="M323.507 163.939C324.664 163.863 325.836 163.938 326.997 163.986C327.011 168.097 327.184 173.517 326.946 177.526C325.722 177.566 325.132 177.615 323.942 177.382C323.246 176.36 323.512 165.783 323.507 163.939Z"/><path fill="#2C2D30" d="M259.235 163.747C260.178 163.932 261.249 163.893 262.22 163.893C262.242 166.186 262.475 176.073 262.091 177.504C261.734 177.517 261.376 177.524 261.019 177.526C260.048 177.524 259.786 177.5 259.186 176.904C258.91 175.215 258.839 165.06 259.235 163.747Z"/><path fill="#2C2D30" d="M358.493 163.771C358.998 163.876 358.982 163.893 359.416 164.193C359.994 165.693 359.849 175.996 359.353 177.396L358.152 177.773L357.051 177.392C356.939 177.254 356.805 177.087 356.647 176.892C356.472 173.789 356.325 167.177 356.579 164.364C357.243 163.805 357.494 163.934 358.493 163.771Z"/><path fill="#76E" d="M333.724 62.5802C336.797 62.3138 339.567 63.8012 338.102 67.6778C337.77 68.5569 336.87 68.7201 336.014 68.955C335.265 68.9641 333.568 69.0475 332.977 68.6883C329.875 66.8041 330.341 63.6074 333.724 62.5802Z"/><path fill="#313748" d="M242.171 226.788C244.277 226.53 247.552 226.676 247.063 230.36C246.817 232.207 242.735 231.026 241.279 231.858C241.163 232.621 241.236 232.437 241.766 233.261C242.458 233.745 243.333 233.766 244.188 233.877C245.248 233.682 245.429 233.453 246.222 233.828L246.095 234.288C240.567 238.111 237.933 229.348 242.171 226.788ZM245.53 230.361C246.087 229.784 245.943 230.065 246.104 229.308C245.299 227.964 243.459 227.946 242.083 228.03C241.623 228.663 241.26 229.002 241.28 229.762C242.151 230.688 244.191 230.197 245.53 230.361Z"/><defs><linearGradient id="gradient_5" gradientUnits="userSpaceOnUse" x1="210.03465" y1="170.86188" x2="213.85732" y2="170.10695"><stop offset="0" stop-color="#0C0B09" stop-opacity="0.98039216"/><stop offset="1" stop-color="#282A30"/></linearGradient></defs><path fill="url(#gradient_5)" d="M211.52 163.986C212.294 163.823 212.723 163.665 213.486 163.923C213.828 164.741 213.535 175.546 213.681 177.579C212.812 177.516 211.32 177.453 210.507 177.316C210.541 174.305 210.293 166.628 210.627 164.199C211.11 165.758 210.564 166.909 210.949 168.66C211.61 168.533 211.367 168.671 211.829 168.023C212.08 166.917 211.86 165.059 211.52 163.986Z"/><path fill="#2C2D30" d="M260.405 226.32C261.835 227.399 261.799 231.132 262.595 233.578C263.037 231.877 263.877 227.829 265.013 226.756C266.563 226.837 266.187 230.768 267.475 232.047C268.113 231.404 267.925 227.696 269.394 226.962C269.692 227.656 269.411 228.436 269.238 229.191C268.896 230.828 268.854 233.887 267.622 234.96L267.18 234.914C265.894 233.524 265.583 229.844 265.074 227.786C264.592 229.763 264.152 234.095 262.668 235.111C260.816 234.64 260.303 228.043 260.405 226.32Z"/><path fill="#2C2D30" d="M214.796 223.583L215.312 223.807C215.906 224.899 215.803 229.522 215.821 230.926C216.928 229.702 218.69 226.538 220.258 226.536L220.327 226.85C219.534 227.996 218.285 229.44 217.37 230.555C218.131 231.625 218.92 232.675 219.736 233.704C220.018 233.923 220.129 234.09 220.36 234.361L220.277 234.926C218.706 235.375 217.532 231.518 216.127 230.968C215.398 232.179 216.421 234.123 215.355 234.997L214.967 234.845C214.332 232.928 214.548 225.776 214.796 223.583Z"/><path fill="#2C2D30" d="M222.929 226.36C224.889 228.724 221.217 235.003 227.127 233.618C228.527 232.106 227.228 228.468 228.083 226.834L228.357 226.829C228.916 227.588 228.753 227.36 228.785 228.438C228.693 230.446 229.009 232.366 228.834 234.207C226.967 235.372 223.09 235.503 222.605 232.718C222.373 231.384 222.307 227.52 222.929 226.36Z"/><path fill="#2C2D30" d="M250.974 230.718C250.105 229.663 248.342 227.869 248.81 226.547L249.226 226.556C249.956 227.185 250.797 228.721 251.333 229.597L251.743 229.612L252.458 228.764L253.079 229.288L252.425 230.229C252.338 231.112 254.028 233.702 254.576 234.884L254.327 235.105C252.421 234.392 252.133 233.026 251.518 231.277C251.069 232.388 250.079 234.814 248.755 235.022C248.468 233.878 250.305 231.663 250.974 230.718Z"/><path fill="#2C2D30" d="M380.565 173.505C383.037 173.486 386.383 174.846 383.403 177.304C380.262 177.798 378.079 176.071 380.565 173.505Z"/><path fill="#313748" d="M341.256 164.018C342.715 163.994 346.362 163.616 346.654 165.616C345.28 167.382 342.916 166.916 340.986 166.724C341.16 166.066 341.207 164.752 341.256 164.018Z"/><path fill="#2C2D30" d="M283.665 226.831C284.392 226.726 285.448 226.737 286.01 227.246L285.888 227.735C284.748 228.374 283.29 227.64 281.993 228.273C281.505 228.985 281.604 232.366 281.589 233.439C281.603 234.053 281.556 234.234 281.44 234.844L281.006 235.046C280.247 234.107 280.557 228.805 280.568 227.369L283.665 226.831Z"/><path fill="#2C2D30" d="M210.833 159.031C212.555 158.961 213.689 158.948 214.219 160.821C214.073 161.662 214.076 161.888 213.446 162.509C211.752 162.573 210.371 162.711 209.843 160.801C210.056 159.828 210.08 159.684 210.833 159.031Z"/><path fill="#2C2D30" d="M324.103 158.996C325.765 159.019 327.056 159.32 327.15 161.262C326.641 162.226 326.893 161.914 325.973 162.5C324.311 162.561 323.06 162.497 322.854 160.514C323.363 159.386 323.08 159.767 324.103 158.996Z"/><path fill="#2C2D30" d="M357.082 158.958C358.669 159.011 359.658 159.083 360.238 160.713C360.17 161.678 360.059 161.786 359.457 162.518C359.332 162.52 359.208 162.521 359.084 162.522C356.402 162.532 354.869 161.153 357.082 158.958Z"/><path fill="#2C2D30" d="M258.83 159.31C260.318 159.148 261.549 158.81 262.446 160.19C262.561 161.258 262.475 161.438 262.124 162.465C260.628 162.503 259.488 162.775 258.608 161.395C258.49 160.397 258.53 160.264 258.83 159.31Z"/><path fill="#33424B" d="M287.632 223.39L288.108 223.843C288.397 225.614 288.396 233.391 287.877 235.024C287.593 234.964 287.599 234.915 287.335 234.734C287.034 232.843 287.088 225.098 287.632 223.39Z"/><path fill="#040506" d="M210.627 164.199C210.832 164.059 211.243 164.032 211.52 163.986C211.86 165.059 212.08 166.917 211.829 168.023C211.367 168.671 211.61 168.533 210.949 168.66C210.564 166.909 211.11 165.758 210.627 164.199Z"/><path fill="#5C5F6D" d="M252.458 228.764C252.421 227.573 253.183 226.82 254.342 226.728C254.825 227.698 253.74 228.561 253.079 229.288L252.458 228.764Z"/><path fill="#040506" fill-opacity="0.58431375" d="M135.668 172.116C136.646 172.082 136.847 172.108 137.806 172.312L137.826 172.525C136.951 172.98 135.933 172.855 134.938 172.827C134.267 172.848 133.09 172.915 132.582 172.548C133.451 172.094 134.66 172.15 135.668 172.116Z"/><path fill="#040506" fill-opacity="0.3764706" d="M225.351 227.956C225.962 228.483 225.794 231.099 225.798 231.957L225.263 231.539C225.004 230.449 225.233 229.095 225.351 227.956Z"/></svg>