<?xml version="1.0" encoding="utf-8" ?><svg xmlns="http://www.w3.org/2000/svg" xmlns:xlink="http://www.w3.org/1999/xlink" width="512" height="252" viewBox="0 0 512 252"><path fill="#2E2D32" d="M125.712 96.5603C127.723 96.6197 129.482 96.6578 131.49 96.584L131.523 114.237C131.529 117.439 132.057 125.27 129.856 127.078C127.437 129.065 115.939 128.291 112.916 128.245C110.658 127.854 107.508 126.494 107.222 123.902C106.804 120.102 105.919 108.561 109.163 106.212C111.925 104.212 121.951 104.737 125.557 104.967C125.513 103.52 125.232 97.6304 125.712 96.5603ZM113.695 110.678C113.212 113.45 112.675 119.844 114.013 122.321C114.877 123.276 120.794 123.082 122.426 123.124L125.48 122.927C125.436 119.092 125.243 113.97 125.513 110.242C122.893 110.118 119.41 109.977 116.787 110.101C115.714 110.257 114.742 110.374 113.695 110.678Z"/><path fill="#2E2D32" d="M383.225 104.868C386.409 104.888 391.009 104.866 392.479 108.301C394.115 112.121 393.746 120.864 393.016 124.803C391.862 131.029 378.586 126.959 375.466 128.511C375.305 129.806 375.331 130.885 375.337 132.179L375.392 136.803C373.315 136.5 371.341 136.534 369.25 136.559C369.151 131.536 368.514 110.108 370.017 107.016C373.204 104.336 379.063 104.908 383.225 104.868ZM375.517 123.017C379.206 122.778 383.374 123.367 386.728 122.368C387.362 120.297 386.828 116.968 386.934 114.763C386.99 113.608 387.175 110.649 385.629 110.418C382.26 109.914 378.642 110.019 375.208 109.982C375.375 114.317 375.303 118.74 375.517 123.017Z"/><path fill="#2E2D32" d="M345.75 105.072C349.277 104.719 359.423 104.564 361.88 106.546C364.991 109.056 364.694 123.078 362.158 126.443C361.032 127.939 358.3 128.239 356.598 128.395C344.722 128.809 337.518 130.138 338.599 115.179C339.046 108.996 338.753 106.244 345.75 105.072ZM355.813 122.997C356.805 122.812 356.583 122.998 357.222 122.364C357.807 120.391 357.707 112.554 356.898 110.645C355.272 109.93 349.477 109.965 347.534 110.072C346.923 110.154 345.975 110.12 345.69 110.746C344.554 113.243 344.795 120.318 345.907 122.643C347.675 123.35 353.701 123.124 355.813 122.997Z"/><path fill="#2E2D32" d="M143.497 105.065C147.719 104.762 155.596 104.343 159.297 106.354C162.167 108.694 161.685 114.707 161.634 117.744C161.521 124.436 161.689 127.662 154.312 128.366C151.449 128.684 142.383 128.813 139.746 127.172C136.227 124.857 136.352 119.547 136.496 115.83C136.749 109.327 136.356 106.427 143.497 105.065ZM153.716 122.947C154.243 122.716 154.92 122.535 155.066 121.951C155.603 119.792 155.661 112.507 154.858 110.695C153.572 109.774 147.367 110.036 145.378 110.061C144.659 110.256 143.914 110.326 143.544 111.06C142.351 113.428 141.956 121.221 144.433 122.655C145.682 123.378 152.111 123.294 153.716 122.947Z"/><path fill="#7852ED" d="M162.832 62.0205C165.729 61.6742 175.309 61.5121 177.724 62.5002C178.023 62.5598 178.339 62.6285 178.614 62.7642C179.661 63.2802 180.226 64.4522 180.578 65.4998C181.26 67.531 182.12 74.8203 181.115 76.6213C180.575 77.5895 165.587 76.44 163.425 76.9378C163.213 77.9848 163.487 79.8084 163.601 80.9336C166.159 81.1707 177.662 81.248 179.835 81.0133C179.732 82.8069 179.761 84.9393 179.741 86.7607C174.164 86.3653 163.488 87.8391 158.542 84.9853C157.23 83.9472 156.105 81.1499 156.192 79.6303C156.549 73.3802 153.587 62.6431 162.832 62.0205ZM162.89 71.7516C166.454 71.9562 170.735 72.0904 174.311 71.9599L174.841 71.858C175.133 70.9373 174.758 68.6634 174.733 67.5097C171.127 67.368 167.519 67.1484 163.919 67.3928C163.217 68.0626 163.124 70.5851 162.89 71.7516Z"/><path fill="#2E2D32" d="M388.692 61.8598L389.855 61.8096C402.718 61.3023 401.101 66.3423 401.46 76.8725C397.554 76.8835 393.648 76.8716 389.743 76.8369C388.488 76.8146 383.544 76.3302 382.934 77.0002C383.015 77.7975 383.243 80.328 383.687 80.6046C385.75 81.8883 395.619 81.486 397.812 81.508C398.719 81.5086 398.692 81.3647 399.329 81.7952C399.762 83.1435 399.514 85.0688 399.501 86.6362C394.144 86.3164 382.084 87.906 378.154 84.551C376.872 83.4564 376.637 82.0594 376.514 80.443C376.239 76.8251 375.544 66.8491 377.945 64.2039C380.237 61.6791 385.571 61.9694 388.692 61.8598ZM382.209 72.093C385.031 72.0005 390.267 72.4884 392.941 72.0661C394.17 71.9726 394.143 72.1749 394.936 71.5271C395.396 70.3708 394.754 68.5672 394.445 67.2684C391.324 67.0718 388.39 66.8959 385.255 67.0229C382.504 67.6673 382.742 69.4886 382.209 72.093Z"/><path fill="#020103" fill-opacity="0.58039218" d="M385.641 69.2947C386.979 69.2279 391.751 68.9049 392.547 69.956C391.804 70.4527 391.742 70.2932 390.706 70.348C389.282 70.2415 385.183 70.5196 384.624 70.3145C384.826 69.6421 384.932 69.7523 385.641 69.2947Z"/><path fill="#2E2D32" d="M306.673 61.8618C310.306 61.3245 317.444 61.8926 321.117 63.1955C324.244 66.8913 323.498 72.0239 323.488 76.8443C318.874 76.4116 308.98 77.3739 304.908 76.3805C305.34 78.4534 305.33 81.6423 308.282 81.5101C310.911 81.3924 313.099 81.3141 315.741 81.4205C317.736 81.4885 319.811 81.4963 321.815 81.533C321.717 83.4987 321.696 84.5892 321.852 86.5434C316.459 86.3743 307.22 87.2935 302.439 85.7906C296.839 84.0302 298.302 68.5995 300.299 64.0118C302.667 62.1144 303.755 62.0478 306.673 61.8618ZM305.075 72.1596C307.735 71.9084 312.702 72.3823 314.604 72.1332L317.65 71.8751C316.888 66.2153 315.253 66.9359 310.067 66.9662C309.066 66.972 308.029 67.0053 307.029 67.0251C304.505 67.6523 305.351 69.9375 305.075 72.1596Z"/><path fill="#020103" fill-opacity="0.7019608" d="M310.297 69.1148C311.531 69.1215 314.814 68.9477 315.495 69.9909L314.591 70.26L314.932 70.2435C313.529 70.4895 312.928 70.4612 311.53 70.4309C310.012 70.1086 308.208 71.1984 307.06 70.1423L307.231 69.6559C308.007 69.1235 309.314 69.1722 310.297 69.1148Z"/><path fill="#2E2D32" d="M172.984 105.095C177.291 104.685 183.702 104.66 187.676 106.242C190.391 109.361 189.555 115.067 189.578 119.44C185.553 119.006 176.966 119.161 172.459 118.997C172.637 122.792 173.417 123.514 177.381 123.337C179.467 123.245 181.477 123.221 183.562 123.263C185.267 123.353 186.832 123.511 188.514 123.218L188.487 128.495C183.203 128.368 165.695 130.476 166.279 122.316C166.807 114.929 163.115 106.219 172.984 105.095ZM172.223 114.485C175.446 114.499 179.262 114.596 182.429 114.408C183.266 114.226 183.632 114.315 183.633 113.201C183.634 112.224 183.482 111.241 183.476 110.265C180.344 110.087 177.207 110.021 174.071 110.066C172.204 110.929 172.515 112.554 172.223 114.485Z"/><path fill="#7852ED" d="M125.956 52.9748C127.911 52.7144 130.53 52.7696 132.7 52.5475C132.418 55.1842 132.59 59.2752 132.596 62.0505C133.499 61.9932 134.689 62.0167 135.617 62.0071C138.014 61.6125 144.678 61.5944 146.811 62.4895C154.264 64.1009 150.775 80.5793 151.812 86.7173L151.829 86.8187C149.721 86.6979 147.525 86.7281 145.406 86.7266C145.329 84.7314 145.31 82.5924 145.276 80.5918C145.042 66.5684 147.049 67.1591 132.715 67.6043C132.916 72.3373 132.213 82.6699 132.775 86.7961C130.629 86.6493 128.323 86.6554 126.162 86.6235C125.857 75.4487 126.178 64.1683 125.956 52.9748Z"/><path fill="#7852ED" d="M135.617 62.0071C138.014 61.6125 144.678 61.5944 146.811 62.4895L146.321 62.7323C143.27 62.3997 139.131 63.2991 135.617 62.0071Z"/><path fill="#2E2D32" d="M356.648 61.8659C361.615 61.7367 366.73 62.046 371.58 61.8645C371.493 63.6903 371.531 65.6922 371.531 67.5337C365.395 67.4119 359.258 67.3843 353.122 67.451C353.001 68.9203 353.122 70.3644 353.203 71.8362C357.312 72.2776 367.216 70.8336 370.432 73.3289C372.781 75.1511 373.035 82.7558 370.445 84.8263C367.906 86.8558 365.868 86.6951 362.716 86.586C357.445 86.7202 352.128 86.5196 346.966 86.7109C346.984 84.7783 346.984 82.8455 346.964 80.9129C352.137 81.2078 360.587 80.8819 365.864 80.7167C365.773 79.4801 365.867 77.8644 365.904 76.5971C362.052 76.5253 352.171 77.6233 348.656 75.7388C347.303 74.6515 346.908 72.1886 346.837 70.7229C346.438 62.4336 349.51 62.0399 356.648 61.8659Z"/><path fill="#2E2D32" d="M310.253 104.881L315.165 104.768C315.178 106.621 315.219 108.473 315.287 110.325C312.612 110.389 299.599 109.464 298.463 110.652C298.038 111.097 297.93 111.762 297.963 112.356C297.98 112.668 298.119 113.156 298.377 113.367C300.394 115.021 310.152 112.342 313.766 115.658C314.96 116.753 315.317 118.425 315.372 119.979C315.446 122.113 315.586 125.042 313.995 126.676C311.366 129.374 300.223 128.431 296.188 128.422L292.016 128.468L291.99 123.106C294.906 122.988 307.351 123.434 308.932 122.572C309.431 121.74 309.459 120.276 309.556 119.262C304.479 118.654 297.767 120.454 293.287 117.682C291.784 116.535 291.966 108.232 292.774 107.222C295.386 103.958 306.38 104.89 310.253 104.881Z"/><path fill="#2E2D32" d="M199.026 105.072C203.041 104.606 210.949 105.098 215.575 104.875C215.517 106.698 215.55 108.555 215.564 110.381C211.047 109.933 205.961 110.373 201.379 109.939C200.161 109.824 199.093 111.435 198.95 112.625C200.116 115.956 215.347 110.748 216.194 118.328C216.893 124.579 216.815 127.109 210.097 128.394C208.885 128.519 205.796 128.439 204.466 128.44C200.797 128.435 197.128 128.454 193.459 128.496C193.191 126.67 193.235 124.771 193.232 122.921C195.966 123.12 208.264 123.116 210.465 122.668C210.517 121.526 210.677 120.357 210.812 119.219C206.838 119.148 199.119 119.834 195.308 118.265C194.372 117.626 193.613 115.703 193.533 114.712C193.088 109.221 193.062 106.028 199.026 105.072Z"/><path fill="#4C59AF" d="M203.943 62.4141L204.089 62.4647C204.775 63.7818 203.666 75.9169 204.324 78.3892C204.966 80.8026 205.78 80.7039 208.245 80.802C210.947 80.9096 213.807 80.8056 216.45 80.3857C216.58 74.4274 216.677 68.4684 216.74 62.5089C218.773 62.419 221.193 62.4811 223.256 62.4832L223.24 74.4499C223.15 85.0075 222.821 86.8582 211.282 86.7405C201.765 86.6434 196.895 86.9656 197.345 75.7155C197.497 71.9288 197.598 66.1807 197.394 62.4009C199.647 62.4545 201.682 62.4913 203.943 62.4141Z"/><path fill="#2E2D32" d="M238.01 61.8632C242.062 61.7352 248.357 61.2769 251.629 64.1012C253.277 65.5238 253.539 68.2439 253.525 70.2906C253.488 75.8122 253.44 81.3305 253.497 86.855C251.432 86.5049 249.096 86.5324 247.013 86.5604C246.882 82.999 247.197 70.5595 246.064 68.2739C245.514 67.6872 244.788 67.6762 243.977 67.5475C240.867 67.3753 237.363 67.4594 234.226 67.4863C234.326 73.9083 234.336 80.3314 234.257 86.7536C232.034 86.6332 230.273 86.5344 228.034 86.6474C227.906 80.8498 227.812 75.2757 227.997 69.4639C228.224 62.382 231.869 62.0809 238.01 61.8632Z"/><path fill="#7852ED" d="M92.5592 54.7821L110.621 54.743C114.458 54.7201 118.928 54.5768 122.713 54.8046C122.558 56.805 122.661 59.2343 122.739 61.2362C119.48 60.9058 114.689 61.0019 111.225 60.8961L111.218 74.4375L111.206 86.4964C108.981 86.6294 106.678 86.6334 104.444 86.6669C104.488 78.2471 104.059 69.7538 104.296 61.2357C100.823 60.9722 95.9073 61.4053 92.9942 60.9933C92.2316 59.9372 92.5176 56.2483 92.5592 54.7821Z"/><path fill="#2E2D32" d="M226.717 105.074C231.108 104.599 244.435 103.449 244.739 109.894C245.022 115.899 244.793 122.448 244.756 128.523C242.865 128.401 240.92 128.385 239.022 128.347C238.982 124.041 239.246 114.469 237.988 110.826C236.218 109.942 228.234 109.516 227.615 110.719C226.089 113.683 226.547 125.362 226.514 128.492C225.048 128.429 221.758 128.613 220.778 127.847C220.212 125.629 220.222 110.288 221.053 107.818C223.065 105.885 224.071 105.495 226.717 105.074Z"/><path fill="#2E2D32" d="M290.172 62.0006C292.279 61.8946 294.52 61.9685 296.731 61.8596C295.427 65.0617 288.501 84.8966 286.68 85.9591C284.498 87.2323 280.226 86.5484 277.902 85.8823C275.768 82.8687 272.968 74.8648 271.523 71.073C270.636 68.949 269.081 64.9978 268.633 62.7536C269.226 62.2039 274.242 62.5088 275.349 62.538C278.062 68.3403 280.09 75.523 282.627 81.5658C284.094 78.18 288.626 63.9744 290.172 62.0006Z"/><path fill="#2E2D32" d="M263.245 99.905C265.255 99.9802 267.325 99.9275 269.341 99.9018C269.379 101.611 269.468 103.495 269.313 105.182C271.821 105.186 275.463 105.303 277.857 104.953C277.593 107.082 277.541 108.213 277.643 110.341C275.545 110.045 271.694 110.054 269.459 109.994C269.5 112.927 269.514 115.865 269.332 118.799C269.184 121.186 269.9 122.741 272.497 122.994C274.258 123.166 276.079 123.032 277.848 122.962L277.668 128.486C258.979 128.028 263.874 126.306 263.056 110.12C262.027 110.089 261.2 110.211 260.428 109.572C259.788 108.627 260.009 106.537 260.018 105.273L263.28 105.319C263.245 103.527 263.254 101.7 263.245 99.905Z"/><path fill="#2E2D32" d="M321.4 99.9587C323.487 99.9715 325.413 99.973 327.496 99.8753L327.553 105.078C329.662 105.198 333.557 105.307 335.57 104.997C335.474 106.804 335.513 108.431 335.552 110.24L327.511 110.003C327.514 114.417 327.586 118.173 327.832 122.589C330.286 123.071 333.2 123.285 335.679 122.966C335.477 124.748 335.521 126.726 335.518 128.533C332.015 128.265 324.346 128.742 322.277 126.064C320.577 123.863 321.164 113.047 321.49 110.163C320.41 110.219 319.093 110.126 317.995 110.078L317.932 105.223C319.117 105.151 320.249 105.113 321.415 104.87C321.456 103.271 321.415 101.567 321.4 99.9587Z"/><path fill="#2E2D32" d="M340.543 61.8783C342.016 61.9115 342.947 61.887 344.415 61.7683C344.389 63.6729 344.456 65.621 344.5 67.5288C341.017 67.4559 337.533 67.4339 334.05 67.4628C334.084 69.8729 334.479 85.7032 333.877 86.5256L333.063 86.5427C331.298 86.4861 329.435 86.5285 327.661 86.5421C327.811 83.3854 327.439 79.5175 327.503 76.2773C327.778 62.3755 326.185 61.9022 340.543 61.8783Z"/><path fill="#2E2D32" d="M274.628 144.841C275.471 144.897 276.665 144.852 277.537 144.845C277.602 147.993 278.232 161.759 276.762 163.533C274.539 164.483 268.986 164.137 266.438 163.993C263.982 163.607 263.532 162.349 263.254 159.983C263.041 158.175 262.815 152.683 264.184 151.452C265.843 149.962 271.575 150.436 273.961 150.237C273.97 148.483 273.689 146.144 274.628 144.841ZM273.958 161.495C273.969 158.861 274.019 156.108 273.982 153.485C271.839 153.808 269.22 153.608 267.02 153.516C266.696 154.803 266.719 155.889 266.579 157.175C266.036 162.16 270.336 161.544 273.958 161.495Z"/><path fill="#2E2D32" d="M156.26 145.787C157.634 145.721 159.204 145.952 160.586 146.106C163.557 148.829 167.219 155.749 169.457 159.532C169.691 155.881 169.487 149.901 169.521 146.011C170.597 145.889 171.923 145.896 173.024 145.871C173.07 148.427 173.573 162.99 172.957 164.157C171.373 164.042 169.81 164.044 168.222 164.028C165.931 160.803 163.781 157.625 161.803 154.202C161.347 153.412 160.532 151.622 159.839 151.229C159.43 153.13 159.588 161.714 159.567 164.126C158.453 164.035 157.156 164.013 156.025 163.966C155.97 161.113 155.358 147.51 156.26 145.787Z"/><path fill="#2E2D32" d="M283.99 150.31C286.817 150.091 291.571 150.155 294.294 150.883C295.299 153.074 295.443 155.629 295.421 158.011C295.392 161.019 295.615 163.567 292.062 163.987C289.777 164.06 284.099 164.515 282.164 163.374C279.559 161.838 279.883 154.532 281.174 152.161C281.864 150.892 282.681 150.675 283.99 150.31ZM284.67 160.826C286.096 161.075 287.36 161.328 288.812 161.387C290.156 161.332 290.189 161.532 291.197 160.917C292.385 159.168 291.762 155.826 291.648 153.515C290.246 153.449 288.787 153.356 287.389 153.369C286.528 153.414 285.285 153.303 284.811 153.896C283.814 155.144 284.061 156.479 284.206 157.862C284.313 158.857 284.468 159.846 284.67 160.826Z"/><path fill="#2E2D32" d="M323.576 150.451C324.475 150.447 326.313 150.295 326.955 150.774C327.302 151.788 327.078 151.995 326.864 153.155C326.11 156.062 324.648 161.421 324.405 164.282C322.13 164.081 321.134 164.002 318.842 164.121C318.423 162.531 317.095 156.613 316.299 155.722C314.911 156.12 314.993 162.146 313.281 164.067C312.731 164.291 308.971 164.096 308.041 164.091C307.043 161.397 305.2 153.34 304.92 150.492L308.819 150.524C309.557 154.23 310.148 158.061 310.856 161.802C311.43 159.313 312.726 152.237 314.212 150.703C315.276 150.315 317.151 150.481 318.35 150.513C319.479 153.792 320.589 158.27 321.471 161.686C322.023 158.425 323.293 153.52 323.576 150.451Z"/><path fill="#2E2D32" d="M189.143 163.763C187.757 164.718 182.712 163.742 180.744 164.112C174.556 165.275 175.01 154.538 176.616 151.408C177.447 149.789 187.304 149.528 188.854 150.835C190.303 152.055 190.036 156.553 190.019 158.453C188.526 158.713 179.739 158.95 179.612 159.021L179.649 159.514C181.759 162.342 185.965 160.476 189.023 161.619L189.143 163.763ZM184.239 155.507C185.168 155.534 185.611 155.623 186.383 155.113L186.709 154.658C185.971 152.851 183.812 153.223 182.212 153.318C181.564 153.461 180.84 153.553 180.311 153.916L179.883 154.803C180.772 155.656 183.007 155.502 184.239 155.507Z"/><path fill="#17161C" d="M189.023 161.619L189.143 163.763C187.758 163.447 186.877 164.029 185.157 163.125L185.237 163.122L185.258 162.724C186.669 161.952 187.447 161.985 189.023 161.619Z"/><path fill="#2E2D32" d="M241.251 163.849C241.096 163.901 240.938 163.944 240.777 163.978C239.947 164.155 238.465 163.952 237.447 164.068C234.913 164.356 227.781 164.903 227.975 160.683C228.17 156.437 226.109 150.325 232.197 150.327C240.884 150.33 241.915 149.153 242.066 158.527C240.422 158.75 232.339 158.709 231.634 159.102C231.473 162.942 239.065 160.146 241.209 161.864L241.251 163.849ZM235.438 155.992C236.379 156.019 237.451 156.18 238.174 155.629C238.592 154.919 238.536 155.232 238.415 154.457C237.063 152.796 236.207 152.962 234.162 153.057C233.006 153.213 231.374 153.522 231.517 154.967C232.645 156.145 233.795 155.945 235.438 155.992Z"/><path fill="#17161C" d="M241.209 161.864L241.251 163.849C239.984 163.485 238.365 163.837 236.684 163.56L236.534 162.279C238.06 161.863 239.56 162.273 241.209 161.864Z"/><path fill="#17161C" fill-opacity="0.55686277" d="M236.212 154.01L236.639 154.425C236.269 154.951 235.866 154.871 235.067 155.05L234.548 154.632L234.735 154.33L236.212 154.01Z"/><path fill="#2E2D32" d="M342.088 163.813C340.398 164.289 330.943 164.42 330.077 163.291C328.273 160.204 327.271 149.796 333.004 150.082C342.363 150.548 342.717 148.789 343.046 158.599C341.171 158.472 334.545 158.562 332.765 158.969C331.064 162.54 340.088 160.98 342.031 161.961C342.199 162.697 342.361 163.096 342.088 163.813ZM332.103 155.639L336.372 155.971C337.411 155.924 338.563 156.018 339.288 155.32C340.148 153.429 337.266 152.844 335.856 153.092C333.318 153.315 333.375 153.537 332.103 155.639Z"/><path fill="#020103" d="M342.031 161.961C342.199 162.697 342.361 163.096 342.088 163.813C340.944 163.556 338.906 163.779 337.323 163.571L337.023 162.253C337.829 161.919 340.943 161.985 342.031 161.961Z"/><path fill="#2E2D32" d="M259.012 62.5052C261.04 62.5663 263.138 62.5188 265.172 62.4983C265.279 67.7382 265.32 72.9792 265.296 78.2202C265.299 80.2662 265.424 84.9343 265.123 86.677C263.018 86.6009 261.305 86.5728 259.203 86.6509C259.266 84.8157 259.095 82.5691 259.094 80.6599C259.112 74.6082 259.084 68.5565 259.012 62.5052Z"/><path fill="#2E2D32" d="M211.67 144.847C217.07 144.835 214.066 147.301 215.009 149.523C216.567 151.299 222.697 148.948 224.356 151.243C224.75 151.787 225.253 154.103 225.208 154.75C225.071 156.735 225.983 163.235 224.327 164.271C223.567 164.309 222.943 164.416 222.289 164.021C221.033 162.588 221.44 158.863 221.439 156.812C221.474 155.677 221.327 154.66 221.196 153.539L214.695 153.719C214.94 156.601 214.772 161.259 214.743 164.283C213.609 164.216 212.413 164.253 211.273 164.267C210.999 159.521 211.031 150.678 211.186 145.592C211.377 145.299 211.538 145.05 211.67 144.847Z"/><path fill="#2E2D32" d="M200.815 147.59C201.668 147.674 203.076 147.527 203.971 147.462C204.079 148.387 204.122 149.526 204.185 150.471C205.457 150.485 207.175 150.438 208.381 150.703C208.91 151.399 208.866 152.394 208.487 153.15C207.418 153.582 205.783 153.182 204.279 153.591C204.004 154.314 204.22 159.791 204.242 161.036C205.327 160.957 208.181 160.54 208.906 161.32C208.943 162.247 209.018 162.855 208.767 163.753C207.614 164.877 202.922 163.978 201.778 163.292C199.251 161.776 201.017 155.989 200.508 153.631C200.441 153.322 197.354 153.208 198.609 150.852C198.797 150.501 199.991 150.49 200.363 150.445C200.978 149.398 200.213 148.958 200.815 147.59Z"/><path fill="#2E2D32" d="M192.063 147.664C192.013 146.17 192.574 144.749 194.412 144.815C196.418 144.887 196.594 146.311 196.509 147.979C196.457 148.662 196.377 150.218 196.237 150.818C195.911 155.513 196.007 159.317 196.192 164.031C192.631 164.352 192.027 163.608 192.414 159.705C192.533 158.505 192.443 157.237 192.567 156.121C192.546 154.075 192.769 149.177 192.063 147.664Z"/><path fill="#2E2D32" d="M192.063 147.664C192.013 146.17 192.574 144.749 194.412 144.815C196.418 144.887 196.594 146.311 196.509 147.979C195.059 149.315 193.312 149.145 192.063 147.664Z"/><path fill="#F0EDEF" d="M192.063 147.664C193.312 149.145 195.059 149.315 196.509 147.979C196.457 148.662 196.377 150.218 196.237 150.818C195.033 150.629 193.916 150.582 192.705 150.513C192.683 152.103 192.72 154.606 192.567 156.121C192.546 154.075 192.769 149.177 192.063 147.664Z"/><path fill="#2E2D32" d="M245.658 150.497C246.529 150.48 247.436 150.439 248.305 150.449C250.078 150.468 256.71 149.52 253.715 153.314C252.458 153.935 250.018 153.564 248.488 153.478C248.536 155.454 248.496 157.574 248.496 159.562L248.49 164.282L244.946 164.075C244.943 161.267 244.502 152.326 245.658 150.497Z"/><path fill="#4C5966" d="M235.722 236.053C233.922 236.055 231.552 235.98 231.229 233.798C230.974 232.085 230.564 225.888 231.388 224.583L231.92 224.601C232.579 225.589 232.015 227.015 232.628 228.116L235.934 227.43C236.618 227.927 237.133 228.311 237.876 228.723C238.547 230.065 238.669 230.583 239.022 232C238.437 234.59 238.432 235.268 235.722 236.053ZM236.813 234.389C238.906 230.424 236.702 228.823 232.758 229.133C231.039 232.522 232.243 235.929 236.813 234.389Z"/><path fill="#2E2D32" d="M258.077 98.425L258.28 98.3678L258.486 98.6721C257.888 100.562 255.17 106.828 254.196 108.539L250.031 108.526C249.047 107.621 251.279 100.038 251.739 98.5609L258.077 98.425Z"/><path fill="#4C5966" d="M296.699 224.115L297.217 224.641C297.634 225.93 297.659 234.397 297.352 235.758C296.147 236.243 292.561 236.013 291.276 235.386C289.737 233.336 289.126 229.563 291.801 228.152C293.535 227.238 294.747 227.713 296.469 228.232C296.395 226.672 296.258 225.624 296.699 224.115ZM295.117 234.701C297.168 233.768 296.306 231.434 296.389 229.447C294.84 229.082 294.161 228.982 292.528 229.043C290.164 230.477 290.507 235.548 295.117 234.701Z"/><path fill="#4C5966" d="M274.629 227.497C279.845 227.335 280.491 234.425 276.085 236.16C275.449 236.142 273.68 236.089 273.235 235.769C269.963 233.422 270.813 228.629 274.629 227.497ZM275.855 235.051C278.591 233.691 278.79 229.594 275.148 229.02C274.443 229.182 273.713 229.221 273.363 229.92C272.125 232.395 272.807 235.001 275.855 235.051Z"/><path fill="#020103" fill-opacity="0.46666667" d="M275.13 230.334L275.548 230.563C275.56 232.669 275.43 231.797 275.888 233.995C273.973 233.143 274.26 231.813 275.13 230.334Z"/><path fill="#4C5966" d="M263.181 236.505C261.507 236.212 261.267 235.552 260.906 233.929C260.572 232.431 259.446 227.982 260.223 226.709L260.589 226.852C261.5 228.267 261.541 231.214 262.816 231.864C263.773 230.864 263.689 228.038 264.839 227.131C266.369 227.366 266.064 231.042 267.451 232.207C268.41 231.035 267.917 228.132 269.393 227.42C270.203 228.661 269.186 236.115 267.058 236.139C266.422 235.67 266.283 235.466 265.935 234.789C265.783 233.806 265.624 231.854 265.027 231.216C264.173 232.786 264.355 234.449 263.181 236.505Z"/><path fill="#2E2D32" d="M399.579 121.839C400.998 121.746 402.765 121.525 404.055 122.133C406.316 123.198 406.265 125.394 405.1 127.296C404.631 128.06 404.051 128.011 403.247 128.195C402.283 128.233 400.621 128.376 399.723 128.069C396.956 127.12 396.763 122.876 399.579 121.839Z"/><path fill="#4C5966" d="M241.275 227.834C243.077 227.234 246.362 226.821 247.006 229.351C248.267 234.309 243.005 231.873 241.359 232.833C241.211 233.581 241.207 233.271 241.497 234.075C242.926 235.406 245.443 234.2 246.266 234.729C245.554 237.125 241.688 236.295 240.384 235.061C240.192 234.628 239.602 232.518 239.387 231.874C240.27 230.885 239.53 229.686 241.275 227.834ZM244.562 231.26C245.5 231.152 245.241 231.309 245.801 230.791C245.54 229.006 244.032 229.016 242.566 229.053C241.998 229.509 241.559 229.768 241.333 230.469C241.859 231.48 243.502 231.17 244.562 231.26Z"/><path fill="#2E2D32" d="M259.898 53.0534C261.978 52.8068 265.32 52.6282 265.813 55.1415C266.222 57.224 265.379 58.5718 263.426 58.9583C260.691 59.0934 257.16 58.9762 258.427 54.4997C258.702 53.5283 259.034 53.4592 259.898 53.0534Z"/><path fill="#2E2D32" d="M254.503 226.865C255.09 226.952 254.834 226.834 255.282 227.262C255.362 228.462 253.321 230.55 252.495 231.539C255.652 237.696 256.935 232.928 258.781 235.062L258.699 235.503C257.619 236.302 254.689 236.226 253.425 235.928C252.369 235.679 251.994 234.796 251.506 233.921C250.761 234.708 249.849 235.991 248.71 235.667C248.713 234.428 250.053 232.838 250.804 231.776C249.839 230.329 248.923 229.342 248.922 227.616L249.238 227.396C250.541 228.066 250.934 228.974 251.57 230.244C252.664 228.764 253.132 228.09 254.503 226.865Z"/><path fill="#4C5966" d="M214.733 224.308C216.946 225.111 215.112 229.322 216.367 230.871C217.738 230.299 218.105 227.216 220.703 227.636C220.605 228.141 218.393 230.663 217.759 231.599C218.595 233.13 218.918 233.555 220.042 234.881C220.355 235.103 220.308 235.128 220.482 235.504L220.274 235.973L219.793 236.115C218.353 235.547 217.363 233.625 216.625 232.351L216.359 232.292C215.596 233.748 216.568 234.981 215.378 236.259L214.822 236.174C214.243 234.641 214.36 225.882 214.733 224.308Z"/><path fill="#2E2D32" d="M222.675 227.55L223.191 227.774C224.65 229.379 222.681 232.833 224.399 234.465C225.219 234.833 225.741 234.796 226.593 234.617C228.943 234.123 226.037 228.413 228.608 227.757L229.004 227.996L229.071 228.938C229.057 230.404 229.226 234.335 228.916 235.512C227.325 236.291 223.875 236.624 222.852 234.75C222.076 233.328 222.268 229.104 222.675 227.55Z"/><path fill="#2E2D32" d="M347.155 159.984C348.504 159.944 349.688 159.689 350.452 161.075C350.768 161.646 350.836 162.323 350.64 162.946C350.403 163.705 350.109 163.771 349.544 164.04C348.17 164.069 346.776 164.225 345.894 162.903C345.107 161.723 346.168 160.589 347.155 159.984Z"/><path fill="#4C5966" d="M280.418 227.721C282.755 228.553 284.258 227.046 286.161 228.419L286.08 228.803C285.265 229.357 283.847 229.053 282.475 229.444C281.85 230.099 281.955 230.89 281.828 231.942C281.742 233.006 281.912 235.159 281.166 235.914L280.86 235.626C280.305 233.521 280.349 229.949 280.418 227.721Z"/><path fill="#4C5966" d="M287.479 224.551L288.033 224.826C288.621 226.053 288.581 235.397 287.55 236.556C286.569 235.018 286.819 226.306 287.479 224.551Z"/><defs><linearGradient id="gradient_0" gradientUnits="userSpaceOnUse" x1="239.04305" y1="227.5759" x2="240.70529" y2="230.14789"><stop offset="0" stop-color="#FAFBFC" stop-opacity="0"/><stop offset="1" stop-color="#FFF6FF" stop-opacity="0.031372551"/></linearGradient></defs><path fill="url(#gradient_0)" d="M237.876 228.723L238.017 228.451C239.201 228.083 239.894 227.339 241.285 227.393L241.156 227.539L241.275 227.834C239.53 229.686 240.27 230.885 239.387 231.874L239.022 232C238.669 230.583 238.547 230.065 237.876 228.723Z"/><defs><linearGradient id="gradient_1" gradientUnits="userSpaceOnUse" x1="265.75845" y1="234.9574" x2="263.22842" y2="232.72266"><stop offset="0" stop-color="white" stop-opacity="0"/><stop offset="1" stop-color="#FFFAFC" stop-opacity="0.050980393"/></linearGradient></defs><path fill="url(#gradient_1)" d="M263.181 236.505C264.355 234.449 264.173 232.786 265.027 231.216C265.624 231.854 265.783 233.806 265.935 234.789C265.416 235.899 264.459 236.607 263.181 236.505Z"/><defs><linearGradient id="gradient_2" gradientUnits="userSpaceOnUse" x1="237.88931" y1="236.18147" x2="236.99083" y2="233.3987"><stop offset="0" stop-color="white" stop-opacity="0"/><stop offset="1" stop-color="#FFF9FC" stop-opacity="0.050980393"/></linearGradient></defs><path fill="url(#gradient_2)" d="M239.022 232L239.387 231.874C239.602 232.518 240.192 234.628 240.384 235.061L240.083 235.595C238.445 235.416 237.185 236.831 235.714 236.458L235.625 236.198L235.722 236.053C238.432 235.268 238.437 234.59 239.022 232Z"/><path fill="#020103" fill-opacity="0.80392158" d="M374.315 75.4104C375.621 76.1574 374.861 80.0989 374.592 81.418L374.237 81.3191C373.716 80.1556 374.177 76.7353 374.315 75.4104ZM374.627 79.2761C374.678 78.5357 374.775 77.8828 374.548 77.1718C374.468 77.7826 374.146 78.8454 374.627 79.2761Z"/><path fill="#020103" fill-opacity="0.96078432" d="M374.548 77.1718C374.775 77.8828 374.678 78.5357 374.627 79.2761C374.146 78.8454 374.468 77.7826 374.548 77.1718Z"/><path fill="#020103" fill-opacity="0.2" d="M225.153 68.861L225.383 70.0531L225.731 70.235C225.85 71.2215 225.871 77.0015 225.429 77.5769C225.136 75.662 225.069 70.8676 225.153 68.861Z"/><path fill="#020103" fill-opacity="0.14509805" d="M325.018 79.6992C326.252 81.1079 325.963 82.5218 325.035 84.0244L324.553 83.7679C323.765 82.366 324.624 81.5547 325.018 79.6992Z"/><path fill="#020103" fill-opacity="0.9254902" d="M354.02 69.4283C356.752 69.013 358.009 69.0244 360.765 69.201L361.097 69.8162C359.883 69.7481 359.581 69.7349 358.399 69.9726C356.565 69.9982 355.771 69.8332 354.02 69.4283Z"/><path fill="#020103" fill-opacity="0.92941177" d="M260.766 60.0924C262.088 60.0648 263.472 59.9721 264.759 60.2415L264.945 60.5536L264.404 60.9297C263.037 60.9906 261.39 61.0419 260.069 60.7381L259.913 60.4385L260.766 60.0924Z"/><path fill="#020103" fill-opacity="0.66666669" d="M325.557 72.1511C326.209 73.6884 325.854 76.6513 325.353 78.2108L325.131 77.9731C324.926 75.8769 324.889 74.1739 325.557 72.1511Z"/><path fill="#020103" fill-opacity="0.50196081" d="M357.893 78.3772C359.194 78.2669 362.453 77.9052 363.577 78.3203L363.631 78.7407C362 78.8474 359.444 78.9343 357.871 78.6427L357.893 78.3772Z"/><path fill="#17161C" fill-opacity="0.33725491" d="M362.349 69.251C363.674 69.1955 364.028 69.2144 365.326 69.473C364.272 69.9021 359.629 70.0913 358.399 69.9726C359.581 69.7349 359.883 69.7481 361.097 69.8162C361.499 69.6822 361.96 69.4379 362.349 69.251Z"/><path fill="#020103" fill-opacity="0.11764706" d="M191.36 109.723L191.576 109.965C191.766 111.681 191.932 113.384 191.624 115.092C191.441 115.043 191.422 114.951 191.248 114.76C191.039 113.388 191.263 111.176 191.36 109.723Z"/><path fill="#020103" fill-opacity="0.49411765" d="M296.495 68.1099L296.726 68.5684C296.741 69.7664 296.648 71.4124 295.942 72.3562C295.276 71.0795 296.028 69.6615 296.495 68.1099Z"/><path fill="#020103" fill-opacity="0.41568628" d="M307.315 78.369C308.649 78.524 309.47 78.0071 310.493 78.8432C309.787 79.3124 309.69 79.3401 308.867 79.4599C307.99 79.2527 307.887 79.0564 307.315 78.369Z"/><path fill="#020103" fill-opacity="0.29411766" d="M218.346 118.679C219.304 119.506 218.762 121.184 218.521 122.246L218.224 122.012C218.05 120.949 218.235 119.762 218.346 118.679Z"/><path fill="#020103" fill-opacity="0.28627452" d="M190.447 160.118C191.121 161.067 190.757 163.257 190.623 164.438C190.025 163.356 190.183 161.3 190.447 160.118Z"/><path fill="#020103" fill-opacity="0.36470589" d="M225.153 68.861C225.225 68.1318 225.219 67.3671 225.58 66.7601C225.902 67.7435 225.806 69.1877 225.731 70.235L225.383 70.0531L225.153 68.861Z"/><path fill="#020103" fill-opacity="0.92156863" d="M225.069 232.366L225.343 230.522L225.704 230.285C225.755 231.312 225.841 231.84 225.504 232.803L225.222 232.832L225.069 232.366Z"/><path fill="#020103" fill-opacity="0.64705884" d="M225.069 232.366C224.979 230.95 224.966 230.541 225.483 229.233L225.713 229.432L225.704 230.285L225.343 230.522L225.069 232.366Z"/><path fill="#020103" fill-opacity="0.05882353" d="M386.974 78.3862C387.164 78.5068 387.467 78.7746 387.652 78.9273L387.025 78.9948C386.67 79.1028 386.685 79.0846 386.313 79.0336L386.974 78.3862Z"/><path fill="#17161C" fill-opacity="0.6156863" d="M360.765 69.201L362.349 69.251C361.96 69.4379 361.499 69.6822 361.097 69.8162L360.765 69.201Z"/></svg>