<?xml version="1.0" encoding="utf-8" ?><svg xmlns="http://www.w3.org/2000/svg" xmlns:xlink="http://www.w3.org/1999/xlink" width="512" height="254" viewBox="0 0 512 254"><path fill="#5F8AD0" d="M275.426 60.5522C278.864 60.3213 289.657 59.8907 292.538 61.3462C297.349 63.7774 296.597 77.095 294.928 81.4243C294.255 83.1709 292.01 83.9107 290.376 84.4501C286.417 84.6877 276.473 85.0029 273.112 83.6005C268.426 81.6456 269.551 67.6674 270.952 63.6431C271.505 62.0514 273.924 61.0106 275.426 60.5522ZM276.505 78.9706C279.172 79.1035 281.648 79.1283 284.312 79.1396C285.924 79.1214 288.078 79.3839 289.147 78.3283C289.912 76.0809 289.833 68.92 289.049 66.7319C287.753 65.2958 283.669 65.6216 281.722 65.6151C280.693 65.6252 277.42 65.5177 276.975 66.2176C275.709 68.2094 276.261 76.4215 276.457 78.499C276.472 78.6563 276.488 78.8135 276.505 78.9706Z"/><path fill="#2C2C2E" d="M201.465 102.569C205.331 102.36 214.949 101.984 218.502 103.403C222.28 104.911 222.236 114.565 221.927 118.061C221.558 122.234 220.65 124.622 216.406 125.911C212.524 126.547 196.382 127.7 196.326 121.545C196.268 115.23 193.265 104.359 201.465 102.569ZM214.214 120.72C214.81 120.375 215.146 120.241 215.3 119.396C215.77 116.814 215.964 110.594 214.899 108.391C213.39 106.913 205.682 107.425 203.431 107.525C201.182 109.506 201.702 117.792 202.987 120.161C203.729 121.53 212.689 121.081 214.214 120.72Z"/><path fill="#2C2C2E" d="M308.76 102.577C311.864 102.367 322.775 102.134 325.19 103.331C329.414 105.425 328.593 119.649 326.942 123.545C326.293 125.078 323.925 125.695 322.444 126.056C319.595 126.462 307.355 126.92 304.973 124.917C303.884 124.264 302.529 121.824 302.627 120.515C303.133 113.765 299.5 103.957 308.76 102.577ZM319.028 121.025C319.941 120.909 320.913 120.891 321.6 120.31C322.284 118.765 322.747 108.665 321.1 108.037C319.391 107.384 314.075 107.592 311.979 107.625C311.431 107.633 309.253 107.613 309.052 108.128C308.127 110.495 308.051 118.183 309.142 120.391C310.397 121.37 317.03 121.037 319.028 121.025Z"/><path fill="#57AAD7" d="M169.524 61.5714C170.135 61.3906 172.292 60.5216 172.654 60.5487C177.697 60.9266 188.952 58.0361 190.497 64.9759C190.914 66.85 191.36 73.1653 190.677 74.5987C189.692 75.1482 175.436 74.7517 173.121 74.7375C173.273 75.8124 173.42 77.9735 173.996 78.7035C176.016 79.5983 186.853 79.2833 189.534 79.214L189.503 84.7169C183.611 84.3699 177.616 85.0551 171.894 84.1824C170.627 83.9893 169.636 83.2256 168.84 82.9879C165.828 79.1601 165.956 65.3137 169.524 61.5714ZM172.964 70.0277C175.523 70.0058 178.082 69.9991 180.641 70.0076C182.011 70.0101 183.577 69.9805 184.93 70.0367L184.299 65.6026C182.307 65.5197 179.637 65.3306 177.692 65.3748C173.115 65.4408 173.071 65.444 172.964 70.0277Z"/><path fill="#2C2C2E" d="M145.043 102.536C148.129 102.396 152.269 102.711 155.176 102.442C165.341 101.499 163.38 110.045 163.519 117.043C157.734 116.601 151.653 116.987 145.805 116.672C146.418 123.175 148.315 121.541 154.313 121.488L161.965 121.522L162.006 126.266C157.46 126.299 146.073 126.889 142.281 125.131C138.076 123.181 139.036 107.908 141.197 104.036C142.496 103.177 143.54 102.846 145.043 102.536ZM145.675 112.255C148.75 112.547 152.133 112.528 155.236 112.478C156.063 112.399 156.927 112.289 157.754 112.318C157.653 110.795 157.496 109.047 157.458 107.54C155.534 107.427 150.693 107.032 148.993 107.351C145.492 107.597 145.985 109.205 145.675 112.255Z"/><path fill="#5F8AD0" d="M214.517 60.589C218.397 60.3301 222.519 60.4847 226.381 60.3849C229.303 60.3094 233.688 61.308 234.231 64.7169C234.614 67.1193 234.586 69.8533 234.455 72.5244C234.27 74.5503 235.249 81.7693 233.642 83.1451C231.113 85.3095 218.674 84.8435 215.96 84.4608C209.727 83.8188 210.584 73.8226 213.089 70.9161C214.888 68.83 225.52 69.4444 228.863 69.5046C228.587 68.059 228.552 67.1539 228.479 65.6972C223.845 65.7757 218.817 65.4417 214.235 65.6986C214.153 64.378 213.874 61.6582 214.517 60.589ZM217.293 79.2952L228.443 79.2791C228.959 78.4891 228.521 75.8256 228.837 74.2054C225.1 74.3683 221.28 74.1507 217.635 74.3609C216.752 75.5046 217.12 77.8632 217.293 79.2952Z"/><path fill="#655BEE" d="M359.244 60.5419C364.597 60.2799 371.694 60.4821 377.18 60.4929C377.209 62.0301 377.094 63.9114 377.037 65.4749C371.609 65.4972 365.96 65.6393 360.566 65.57L360.484 69.497C365.88 69.5551 372.94 68.4712 377.241 71.3989C378.658 74.2347 379.298 78.9496 377.413 81.7344C376.123 83.6399 374.418 84.0452 372.304 84.4447C366.536 84.6156 360.113 84.4901 354.296 84.4929C354.193 82.4663 354.169 80.9389 354.231 78.9119C358.362 78.9605 368.857 79.3164 372.452 78.6454C372.358 77.3559 372.434 76.0554 372.481 74.7622C367.744 74.6254 362.835 75.03 358.189 74.5332C353.21 74.0008 354.044 66.3058 354.882 63.0057C356.515 61.4276 356.983 61.0717 359.244 60.5419Z"/><path fill="#655BEE" d="M306.118 60.5578C308.122 60.4717 310.127 60.43 312.133 60.4329C323.77 60.3595 326.193 60.7246 325.761 73.4062C325.644 76.8174 325.773 81.0318 325.783 84.5128L319.759 84.4971C319.311 79.0071 319.977 71.7546 319.332 66.7673C317.529 65.1903 309.506 65.2092 307.468 66.1129C306.628 67.3912 307.039 81.9126 307.06 84.5087L300.945 84.5009C300.675 80.1789 300.29 67.8342 301.745 63.7397C302.344 62.0552 304.412 61.0864 306.118 60.5578Z"/><path fill="#2C2C2E" d="M338.529 102.564C342.103 102.354 346.472 102.533 350.113 102.452C353.013 102.388 355.288 102.941 357.335 105.053C358.46 108.364 358.018 121.852 358.126 126.349L352.071 126.344C351.76 120.66 352.235 114.982 351.702 109.061C350.727 106.696 341.763 107.522 339.199 107.47C339.354 113.6 339.268 120.096 339.315 126.26L333.22 126.251C333.049 121.98 332.361 108.612 334.239 104.808C334.96 103.347 336.966 102.842 338.529 102.564Z"/><path fill="#2C2C2E" d="M257.842 102.716L263.95 102.487C263.767 104.155 263.79 105.513 263.798 107.187C263.879 110.631 264.481 122.118 262.474 124.154C259.434 127.238 240.231 128.101 239.59 121.519C238.994 115.412 239.227 108.568 239.179 102.508C241.187 102.574 243.379 102.539 245.402 102.547C245.093 107.422 245.202 115.109 245.909 119.89C246.136 121.431 255.64 121.313 257.331 120.052C258.025 118.616 257.803 105.152 257.842 102.716Z"/><path fill="#2C2C2E" d="M187.26 102.617C189.477 102.558 191.693 102.512 193.91 102.478C193.302 104.402 192.509 106.462 191.782 108.353C189.821 113.217 187.384 122.131 184.396 125.716C174.158 128.116 174.053 124.145 170.81 116.118L165.436 102.787L168.04 102.635C169.565 102.546 170.933 102.599 172.455 102.644C173.605 105.503 178.287 119.467 179.721 120.731C179.88 120.872 180.133 120.782 180.339 120.761C181.669 119.466 186.142 105.588 187.26 102.617Z"/><path fill="#57AAD7" d="M148.997 55.5122C150.934 55.3419 153.358 55.4365 155.342 55.4633C155.3 57.0888 155.039 59.0437 155.73 60.4403C155.973 60.6721 156.422 61.0231 156.739 61.0042C159.038 60.8671 161.251 60.7994 163.539 60.8206L163.494 65.6942C161.177 65.5237 157.621 65.5677 155.274 65.5592C155.786 69.3724 155.115 73.9079 155.804 78.587C158 79.0365 161.567 79.0567 163.783 78.7559L164.011 79.016C163.967 80.7541 164.044 82.7587 164.07 84.5176C159.235 84.4836 153.157 85.6015 149.66 81.9011C148.893 77.3953 149.043 70.4523 148.989 65.6947L145.777 65.7408C145.661 64.118 145.706 62.5364 145.726 60.9108C147.204 60.9726 147.873 61.229 148.928 60.4322C149.307 59.5701 149.008 56.7999 148.997 55.5122Z"/><path fill="#5F8AD0" d="M241.753 55.0692C243.637 55.1198 244.896 55.1419 246.766 54.9777L246.747 60.8252C249.51 60.7536 252.387 60.8027 255.159 60.8112C255.235 62.4959 255.198 64.1557 255.178 65.8412C253.567 65.7785 248.226 65.4472 247.049 65.8666C246.54 68.0104 246.867 76.1887 247.118 78.5486C249.355 79.0283 254.17 78.7735 255.088 79.3076L255.223 79.9375L255.158 84.5277C255.009 84.5371 254.86 84.5439 254.71 84.548C249.792 84.6869 245.135 85.3352 241.497 81.9059C240.133 78.1082 240.482 69.8707 240.608 65.6109C237.283 65.9184 235.889 63.4993 238.301 61.0711C238.748 60.6207 240.249 60.9326 240.902 61.0293C240.794 59.5793 240.486 57.005 240.922 55.625C241.043 55.2429 241.3 55.2542 241.753 55.0692Z"/><path fill="#2C2C2E" d="M271.524 97.2987C273.515 97.2885 275.505 97.2629 277.495 97.2219L277.478 102.808C280.328 102.733 283.179 102.705 286.03 102.725C286.08 104.315 286.112 105.907 286.124 107.498C283.194 107.555 280.262 107.556 277.332 107.501C277.514 110.705 277.281 113.899 277.231 117.103C277.159 121.782 282.332 121.082 285.558 121.036L285.987 121.101C286.399 121.782 286.263 125.26 286.263 126.254C276.902 126.081 269.994 127.707 271.457 115.852C271.683 114.021 271.464 109.588 271.466 107.509C270.42 107.575 268.847 107.885 268.166 107.069C267.916 105.81 267.838 104.126 268.346 102.927C269.14 102.525 270.617 102.679 271.566 102.702C271.518 100.938 271.537 99.0723 271.524 97.2987Z"/><path fill="#2C2C2E" d="M84.2488 144.008C86.5247 144.01 89.9582 144.047 92.0177 143.972C99.8098 143.688 100.32 146.952 100.084 153.732C99.989 156.478 100.312 157.239 98.7454 159.881C95.466 161.59 88.1045 161.042 84.2579 161.013C84.2262 157.594 83.8935 146.778 84.2488 144.008ZM87.4755 158.024C90.1917 158.129 93.2158 158.434 95.7965 157.682C96.8869 156.116 97.1779 148.762 95.2629 147.597C93.4447 146.49 89.7183 147.09 87.4577 146.939L87.4755 158.024Z"/><path fill="#2C2C2E" d="M227.151 93.5074L233.399 93.53C233.204 96.231 233.427 101.951 233.438 104.938L233.461 126.138C232.446 126.303 228.664 126.219 227.438 126.216C227.157 122.784 227.29 118.717 227.252 115.251C227.174 108.027 227.35 100.727 227.151 93.5074Z"/><path fill="#2C2C2E" d="M177.745 148.069C180.761 148.017 183.464 147.907 186.452 148.379C186.575 148.484 186.697 148.59 186.818 148.698C188.634 150.332 188.431 151.924 188.641 154.138C189.405 162.181 185.52 161.075 179.441 161.064L177.723 161.159C177.83 162.662 177.749 164.483 177.72 166.019C176.496 165.777 175.467 165.774 174.231 165.732C174.304 161.617 173.215 153.353 174.694 149.46C175.034 148.565 176.772 148.279 177.745 148.069ZM177.83 158.464C179.936 158.532 181.797 158.605 183.911 158.478C185.443 157.167 184.648 153.074 184.458 151.064C182.601 150.943 180.582 150.772 178.736 150.819C178.221 151.172 177.917 151.244 177.832 151.938C177.581 153.963 177.743 156.427 177.83 158.464Z"/><path fill="#57AAD7" d="M135.57 53.52L142.001 53.4603C141.639 62.374 141.67 75.4314 141.938 84.338C140.752 84.5982 137.075 84.4759 135.676 84.4597C135.42 81.1939 135.524 76.5933 135.522 73.2502L135.57 53.52Z"/><path fill="#2C2C2E" d="M217.719 142.771C218.785 142.707 219.463 142.612 220.498 142.862C220.785 143.169 220.948 143.21 220.94 143.695C220.875 147.496 221.598 157.254 219.982 160.227C219.328 161.428 211.706 160.994 210.029 160.925C209.576 160.776 208.721 160.505 208.381 160.161C206.572 158.336 206.146 150.773 207.928 149.118C209.474 147.682 215.25 148.011 217.678 148.002C217.583 146.606 217.394 144.078 217.719 142.771ZM216.69 158.586L217.26 158.605C217.972 157.705 217.572 152.246 217.517 150.759L211.56 150.836C211.022 151.023 210.422 151.103 210.239 151.734C209.729 153.486 209.455 157.211 211.171 158.392C212.762 158.859 214.998 158.672 216.69 158.586Z"/><path fill="#57AAD7" d="M199.128 60.5437C202.729 60.331 207.361 60.4541 210.987 60.4705C210.889 62.3628 210.9 63.7948 210.962 65.6913C207.666 65.554 204.365 65.5905 201.072 65.8007C200.866 69.4791 200.972 74.1218 200.969 77.875L201.012 84.541C199.105 84.5769 197.077 84.5346 195.158 84.5283C195.032 80.664 194.27 65.3768 195.651 62.6764C196.316 61.376 197.839 60.9439 199.128 60.5437Z"/><path fill="#2C2C2E" d="M321.742 148.063C324.052 147.994 328.635 147.683 330.56 148.706C333.385 150.208 332.881 157.132 331.593 159.515C331.025 160.568 330.268 160.705 329.189 161.009C327.547 161.067 320.842 161.454 319.691 160.584C317.347 158.812 317.321 151.729 318.941 149.376C319.674 148.309 320.52 148.298 321.742 148.063ZM321.65 158.321C324.134 158.653 325.457 158.636 327.98 158.486C329.394 157.491 328.842 152.743 328.695 151.078C326.457 150.966 324.205 150.791 321.98 151.082C320.684 152.748 321.164 156.357 321.65 158.321Z"/><path fill="#2C2C2E" d="M251.786 148.053C254.178 148.004 259.209 147.694 261.041 148.73C263.104 149.896 263.094 157.937 261.783 159.851C261.167 160.749 260.455 160.784 259.517 160.981C257.077 161.034 249.259 161.873 248.757 159.064C248.007 154.87 246.767 149.655 251.786 148.053ZM257.496 158.583C258.056 158.481 258.574 158.51 258.838 158.048C259.676 156.58 259.284 152.794 259.231 151.096C257.062 150.916 255.538 150.808 253.372 150.858C252.841 151.011 252.043 151.125 251.847 151.687C251.179 153.593 250.916 156.734 252.434 158.233C253.78 158.789 255.985 158.635 257.496 158.583Z"/><path fill="#2C2C2E" d="M160.749 148.07C166.652 147.949 171.856 146.708 171.21 154.615C170.973 157.52 171.603 160.403 168.037 161.049C165.032 161.142 160.834 161.57 158.18 160.389C156.545 158.564 156.455 151.433 157.919 149.382C158.652 148.356 159.618 148.285 160.749 148.07ZM164.561 158.614C165.445 158.605 166.451 158.727 167.07 158.158C168.181 156.341 167.446 153.633 167.498 151.056C166.422 150.98 163.827 150.742 162.876 150.824C162.085 150.907 161.12 150.915 160.63 151.61C159.285 153.519 159.276 156.663 161.17 158.226C161.791 158.74 163.759 158.732 164.561 158.614Z"/><path fill="#655BEE" d="M343.754 60.8215C345.769 60.737 347.787 60.7508 349.801 60.8629C350.026 68.4924 349.53 76.995 350.006 84.5341L343.581 84.5207C343.501 81.7375 343.296 61.9096 343.754 60.8215Z"/><path fill="#2C2C2E" d="M291.307 102.435C293.008 102.794 295.471 102.742 297.27 102.766C297.201 110.474 297.427 118.499 297.387 126.312C295.337 126.233 293.106 126.26 291.04 126.246C291.026 123.162 290.692 103.89 291.307 102.435Z"/><path fill="#5F8AD0" d="M258.74 60.8555C260.562 60.7346 262.999 60.7881 264.868 60.7771C264.61 63.8764 264.999 83.9613 264.408 84.7587C262.754 84.5569 260.226 84.5452 258.546 84.512C258.536 81.5486 258.227 62.2127 258.74 60.8555Z"/><path fill="#2C2C2E" d="M393.06 161.037C392.95 161.053 392.839 161.068 392.728 161.082C390.865 161.308 385.748 161.565 384.415 160.282C382.539 158.475 382.491 151.133 384.01 148.934C384.556 148.142 387.419 147.9 388.405 147.884C396.688 147.744 396.674 148.65 396.508 155.991C394.793 156.014 387.529 155.886 386.503 156.564L386.467 157.065C388.477 159.874 393.21 157.584 395.981 158.926C395.992 160.111 396.159 159.987 395.653 160.904C394.915 161.27 393.912 161.099 393.06 161.037ZM392.046 153.463C393.097 153.136 393.119 152.947 392.926 151.747C391.752 150.244 389.655 150.754 387.828 150.818C387.185 151.237 386.861 151.392 386.44 152.056L386.406 152.54C387.619 153.82 390.355 153.519 392.046 153.463Z"/><path fill="#0A0A0B" d="M393.06 161.037C392.266 160.985 391.446 160.927 390.652 160.916C389.407 160.9 389.607 160.224 389.462 159.226C389.991 158.926 394.989 158.943 395.981 158.926C395.992 160.111 396.159 159.987 395.653 160.904C394.915 161.27 393.912 161.099 393.06 161.037Z"/><path fill="#2C2C2E" d="M191.443 159.025C191.004 157.216 190.385 150.487 191.935 149.2C194.059 147.435 201.731 147.338 203.8 149.365C204.778 150.323 204.545 154.454 204.535 155.9C202.091 156.126 196.163 155.47 194.579 156.693C194.379 157.371 194.389 157.082 194.767 157.913C195.772 158.968 201.222 158.611 203.346 158.941C203.891 159.591 203.89 159.411 204.041 160.169C203.331 161.315 201.361 161.045 200.101 161.04C197.02 161.51 193.458 161.749 191.443 159.025ZM200.062 153.501C200.855 153.382 200.584 153.536 201.085 152.938C201.133 152.006 201.209 152.381 200.746 151.517C199.08 150.406 197.791 150.721 195.782 150.839C194.632 151.418 193.994 151.884 194.815 153.227C196.167 153.913 198.453 153.577 200.062 153.501Z"/><path fill="#0A0A0B" d="M200.101 161.04C199.129 160.981 197.247 161.057 196.569 160.58L196.419 159.114C197.744 158.816 201.56 159.063 203.346 158.941C203.891 159.591 203.89 159.411 204.041 160.169C203.331 161.315 201.361 161.045 200.101 161.04Z"/><path fill="#2C2C2E" d="M108.202 161.105C105.181 161.036 103.009 160.343 102.732 156.659C102.42 152.521 102.121 147.725 107.734 147.939C110.11 148.029 113.509 147.429 115.544 149.208C116.441 150.687 116.269 154.109 116.298 155.974C114.054 155.96 108.243 155.545 106.561 156.484C106.101 157.212 106.175 156.873 106.31 157.763C107.547 159.362 112.278 158.462 114.829 158.9L115.059 158.942C115.383 159.882 115.435 159.611 115.227 160.483C114.322 161.383 109.707 161.052 108.202 161.105ZM112.285 153.485C113.275 153.097 113.052 152.601 112.87 151.637C111.848 150.328 108.742 150.762 107.171 150.836C106.042 151.515 105.782 152.281 106.717 153.302C108.279 153.867 110.548 153.566 112.285 153.485Z"/><path fill="#0A0A0B" d="M115.059 158.942C115.383 159.882 115.435 159.611 115.227 160.483C114.322 161.383 109.707 161.052 108.202 161.105C108.041 160.447 107.921 160.127 108.02 159.44C109.056 158.587 113.255 158.995 115.059 158.942Z"/><defs><linearGradient id="gradient_0" gradientUnits="userSpaceOnUse" x1="143.50024" y1="157.44337" x2="136.21707" y2="148.6557"><stop offset="0" stop-color="#1A1C21"/><stop offset="1" stop-color="#343232"/></linearGradient></defs><path fill="url(#gradient_0)" d="M140.315 161.065C137.937 161.102 134.991 161.328 134.608 158.482C134.305 156.237 133.949 150.853 135.151 148.998C136.109 148.288 137.612 148 138.792 147.962C148.442 147.647 147.198 148.277 147.569 156.006C145.578 155.932 143.585 155.88 141.593 155.85C140.214 155.841 138.916 155.78 137.93 156.747C137.914 157.673 137.891 157.373 138.437 158.239C140.02 159.081 144.432 158.576 146.734 158.893C146.862 159.962 146.991 159.755 146.591 160.624C145.171 161.481 142.273 160.971 140.315 161.065ZM144.117 153.371C144.562 152.82 144.589 152.738 144.706 152.038C143.655 150.383 140.285 150.777 138.474 150.807C138.117 151.556 137.927 151.832 137.976 152.682C138.987 154.149 142.454 153.48 144.117 153.371Z"/><path fill="#0A0A0B" d="M146.734 158.893C146.862 159.962 146.991 159.755 146.591 160.624C145.171 161.481 142.273 160.971 140.315 161.065C139.797 160.459 139.841 160.216 139.874 159.55C140.867 158.618 144.681 159.176 146.734 158.893Z"/><path fill="#2C2C2E" d="M235.674 144.309C235.857 144.288 236.041 144.271 236.225 144.259C238.133 144.146 244.754 143.76 245.96 144.822C246.023 145.588 246.161 146.315 245.821 147.001C244.891 147.571 237.169 147.435 235.343 147.498C234.994 149.716 234.967 152.014 234.806 154.25C234.47 158.915 239.627 158.106 242.79 158.064L246.111 158.215C246.168 158.966 246.103 160.313 246.09 161.111C242.254 161.081 237.208 161.584 233.58 160.37C232.2 159.696 231.459 156.725 231.503 155.447C231.673 150.562 229.982 145.987 235.674 144.309Z"/><defs><linearGradient id="gradient_1" gradientUnits="userSpaceOnUse" x1="405.21686" y1="160.72137" x2="404.30728" y2="148.25862"><stop offset="0" stop-color="#232428"/><stop offset="1" stop-color="#413E40"/></linearGradient></defs><path fill="url(#gradient_1)" d="M400.757 148.077C402.561 147.858 409.172 147.712 410.759 148.228C411.146 148.781 411.134 149.996 411.187 150.73C408.787 150.815 402.651 150.207 401.092 151.771L401.135 152.176C403.725 153.91 412.565 150.615 411.605 157.498C411.255 160.002 411.053 160.71 408.568 161.216C406.445 161.041 400.349 161.69 398.896 160.732C398.507 160.025 398.428 159.917 398.529 159.126C399.617 157.555 405.623 159.407 408.37 158.015C408.737 157.31 408.689 157.623 408.549 156.836C407.042 155.33 401.559 156.692 399.729 155.799C397.73 154.825 398.138 150.625 399.063 149.063C399.473 148.37 400.071 148.278 400.757 148.077Z"/><defs><linearGradient id="gradient_2" gradientUnits="userSpaceOnUse" x1="355.83966" y1="160.96513" x2="359.50992" y2="147.67429"><stop offset="0" stop-color="#191B1E"/><stop offset="1" stop-color="#3F3D3F"/></linearGradient></defs><path fill="url(#gradient_2)" d="M351.369 158.814C353.394 158.3 358.709 158.886 360.848 158.27C360.848 158.27 361.345 157.608 361.406 157.526L361.49 156.899C359.153 154.721 351.448 158.227 350.991 152.803C350.526 147.286 354.68 147.843 358.734 147.914C360.487 147.953 362.241 148.003 363.994 148.064C364.059 148.903 364.253 149.921 363.853 150.606C361.418 151.75 355.866 149.487 354.26 151.764L354.218 152.313C355.525 153.706 360.307 151.883 363.889 154.149C366.233 161.421 362.123 161.2 356.7 161.131C354.92 161.152 351.717 161.617 350.847 159.903C350.976 159.315 350.995 159.299 351.369 158.814Z"/><path fill="#0A0A0B" d="M356.7 161.131C354.92 161.152 351.717 161.617 350.847 159.903C350.976 159.315 350.995 159.299 351.369 158.814C352.717 159.284 356.056 159.04 357.873 159.253C356.88 159.301 354.623 159.334 353.773 159.609L353.624 160.084L353.647 159.665L353.6 160.082C355.371 160.976 357.018 160.273 357.673 160.682C357.347 160.846 357.046 161.012 356.7 161.131Z"/><defs><linearGradient id="gradient_3" gradientUnits="userSpaceOnUse" x1="418.23209" y1="160.39043" x2="421.97345" y2="147.54562"><stop offset="0" stop-color="#181A1C"/><stop offset="1" stop-color="#444144"/></linearGradient></defs><path fill="url(#gradient_3)" d="M415.441 156.014C412.929 154.251 412.979 151.612 414.141 149.123C415.08 147.111 424.955 147.684 426.499 148.852L426.568 149.608C423.479 152.248 417.813 149.453 416.514 151.872C417.202 154.427 425.465 151.08 426.327 155.033C426.643 156.481 427.059 160.602 424.748 160.986C422.411 161.099 415.795 161.51 413.741 160.848L413.479 158.946C416.445 157.659 422.033 159.87 423.595 157.26L423.641 156.712C422.44 155.746 417.423 156.222 415.441 156.014Z"/><path fill="#0A0A0B" d="M413.741 160.848L413.479 158.946C415.501 159.092 417.575 159.026 419.525 159.312C418.385 159.267 415.64 159.093 414.668 159.268C414.702 159.289 419.012 160.615 419.019 160.615L419.007 160.654L418.448 160.512C417.947 160.842 414.753 160.702 413.741 160.848Z"/><defs><linearGradient id="gradient_4" gradientUnits="userSpaceOnUse" x1="285.96198" y1="161.1814" x2="289.6185" y2="147.59026"><stop offset="0" stop-color="#121417"/><stop offset="1" stop-color="#413F42"/></linearGradient></defs><path fill="url(#gradient_4)" d="M283.866 148.032L293.889 147.982C293.906 148.821 293.877 149.501 293.83 150.338C292.477 151.997 284.564 149.124 284.267 152.295C285.627 153.443 292.05 152.476 293.529 153.954C295.544 155.968 294.946 160.528 291.562 161.009C289.2 161.011 281.085 162.157 281.151 159.267C282.8 157.579 288.763 159.534 291.108 158.088C291.528 157.307 291.488 157.639 291.317 156.84C289.053 154.786 282.028 157.911 281.29 153.906C280.815 151.327 280.978 148.817 283.866 148.032Z"/><path fill="#2C2C2E" d="M345.004 148.024L348.627 147.886C348.639 149.008 348.659 150.131 348.686 151.254C348.729 153.315 349.332 160.138 346.933 160.693C344.573 161.239 335.888 162.206 335.166 158.976C334.724 156.998 334.219 149.734 334.992 148.045C335.844 148.018 337.081 147.861 337.773 148.254C338.319 151.008 337.729 154.576 338.368 157.762L338.394 157.89C340.936 158.754 342.125 158.586 344.753 158.428C344.945 155.352 344.913 151.199 345.004 148.024Z"/><path fill="#2C2C2E" d="M267.283 148.044C270.344 147.971 275.172 147.537 277.808 148.866C279.265 150.464 279.629 159.592 278.721 160.974C277.917 161.272 276.594 161.428 275.893 160.841C275.382 159.998 275.462 153.459 275.444 152.007C274.76 149.997 270.313 150.873 268.52 151.09C268.513 153.565 268.617 158.367 268.358 160.637C267.886 161.341 268.168 161.121 267.143 161.366C263.757 160.39 265.327 152.589 265.574 149.843C265.658 148.909 266.524 148.429 267.283 148.044Z"/><path fill="#2C2C2E" d="M368.981 148.032C382.574 147.169 380.623 149.119 380.479 161.252C379.265 161.23 378.667 161.388 377.731 160.773C376.694 159.125 377.303 154.671 377 151.778L376.684 151.318C375.298 150.366 371.68 150.881 369.987 151.07L369.946 157.395C369.936 158.445 370.108 160.538 369.399 161.234C368.427 161.466 368.835 161.466 367.839 161.196C366.526 160.123 366.437 157.926 366.562 156.342C366.797 153.367 365.854 149.534 368.981 148.032Z"/><path fill="#2C2C2E" d="M117.466 148.091C120.523 147.787 121.401 147.419 122.474 150.622C123.489 153.648 124.644 156.578 125.497 159.676C126.033 157.634 126.687 155.618 127.272 153.59C127.863 151.541 129.173 145.66 132.455 148.418C132.669 149.247 132.514 149.169 132.132 150.141C131.07 153.468 129.793 157.397 128.189 160.396C127.197 161.534 123.661 161.194 122.688 160.221C121.568 159.101 117.546 149.226 117.466 148.091Z"/><defs><linearGradient id="gradient_5" gradientUnits="userSpaceOnUse" x1="307.41534" y1="160.53223" x2="299.61026" y2="148.29204"><stop offset="0" stop-color="#141216"/><stop offset="1" stop-color="#373637"/></linearGradient></defs><path fill="url(#gradient_5)" d="M299.51 148.045C301.802 147.995 307.69 147.285 309.054 149.053C309.249 149.981 309.26 149.594 308.979 150.528C307.608 151.243 302.819 150.78 300.491 151.07L300.505 158.447L304.187 158.661C305.938 158.705 308.165 158.035 308.986 159.714C308.926 160.644 309.075 160.398 308.575 160.903C306.068 161.326 301.169 161.208 298.731 160.632C296.374 160.075 296.826 151.861 297.304 149.989C297.594 148.852 298.535 148.472 299.51 148.045Z"/><path fill="#434E5C" d="M231.199 223.091L231.641 223.369C232.194 224.11 232.085 225.294 232.136 226.288C233.268 227.061 239.184 225.218 238.879 229.736C238.768 231.386 238.733 232.176 238.066 233.726C238.021 233.759 237.976 233.793 237.931 233.827C232.046 237.088 230.47 232.97 230.883 227.696C230.995 226.266 230.879 224.668 231.199 223.091ZM235.28 233.717C238.463 232.191 238.138 227.62 234.924 227.603C232.837 227.853 231.822 228.45 232.002 231.007C232.132 232.836 233.479 233.621 235.28 233.717Z"/><defs><linearGradient id="gradient_6" gradientUnits="userSpaceOnUse" x1="148.38464" y1="153.35764" x2="156.11536" y2="149.89236"><stop offset="0" stop-color="#161716"/><stop offset="1" stop-color="#302F34"/></linearGradient></defs><path fill="url(#gradient_6)" d="M151.242 142.759C152.061 142.763 153 142.632 153.63 143.106C154.335 144.682 153.913 158.017 153.9 160.6C153.898 160.964 153.528 161.091 153.25 161.227C152.478 161.259 151.942 161.351 151.234 161.057C150.795 160.441 150.542 159.561 150.652 158.828C151.067 156.051 149.768 144.309 151.242 142.759Z"/><path fill="#434E5C" d="M297.065 222.937C297.832 223.66 297.562 232.548 297.525 234.184L297.187 234.468C295.601 234.786 292.835 234.884 291.296 234.35C290.567 233.009 289.927 230.953 289.911 229.436C289.899 228.649 290.227 227.895 290.81 227.366C292.088 226.211 294.513 226.46 296.155 226.552C296.791 225.552 295.678 224.723 297.065 222.937ZM294.761 233.502C297.171 232.295 296.459 230.76 296.196 228.304C295.036 227.907 294.168 227.551 292.929 227.471C290.085 229.339 290.516 233.673 294.761 233.502Z"/><path fill="#434E5C" d="M273.817 226.254C280.035 225.485 280.521 233.507 276.168 234.734C270.936 235.876 269.745 229.137 273.817 226.254ZM275.754 233.701C278.712 232.143 278.241 227.732 274.935 227.737C271.718 228.603 271.735 233.322 275.754 233.701Z"/><path fill="#2C2C2E" d="M311.912 147.965C313.116 148.044 314.187 147.959 315.385 147.889C315.38 152.156 315.464 156.824 315.312 161.065C314.529 161.292 312.996 161.455 312.24 161.064C311.209 159.343 311.694 150.151 311.912 147.965Z"/><path fill="#2C2C2E" d="M366.021 119.582C370.086 119.303 372.05 121.214 370.172 125.463C369.927 126.016 369.11 125.954 368.563 125.991C366.863 126.021 365.366 126.285 363.935 125.226C362.148 123.904 362.233 121.988 363.598 120.379C364.228 119.636 365.109 119.662 366.021 119.582Z"/><path fill="#434E5C" d="M260.43 225.893C262.264 227.153 260.952 230.095 262.691 231.367C263.8 230.205 263.477 227.125 265.093 226.262C266.824 227.052 266.191 230.259 267.267 231.306C268.283 230.285 267.879 226.518 269.26 226.13L269.584 226.568C269.721 227.855 269.254 229.402 268.953 230.693C268.912 231.846 268.578 234.756 267.57 235.42L267.12 235.197C265.879 233.47 265.541 229.915 265.218 227.776C264.783 229.238 264.062 235.536 262.241 235.151C260.924 233.748 259.937 227.636 260.43 225.893Z"/><path fill="#434E5C" d="M242.874 225.966C243.869 226.025 246.148 226.402 246.539 227.434C248.418 232.389 243.293 230.764 241.313 231.527L241.27 231.94C242.62 233.806 243.273 233.764 245.452 233.248L245.892 233.044L246.338 233.223L246.34 233.792C245.099 235.738 242.51 234.846 240.817 234.183C239.443 230.891 239.118 227.439 242.874 225.966ZM244.374 229.85C245.287 230.028 244.977 230.101 245.626 229.712C245.691 228.193 244.46 227.504 243.083 227.427C242.3 227.932 241.711 228.208 241.303 229.041C241.592 230.219 243.326 229.871 244.374 229.85Z"/><path fill="#655BEE" d="M344.662 52.085C346.605 51.878 351.432 51.5131 350.654 55.6648C350.47 56.6473 349.426 57.5335 348.468 57.9224C347.789 57.9686 346.066 58.1312 345.483 57.9222C342.484 56.8477 341.387 53.7015 344.662 52.085Z"/><path fill="#5F8AD0" d="M259.985 52.0466C261.994 51.9326 264.253 51.7022 265.379 53.8308C265.695 54.4375 265.751 55.146 265.535 55.7949C265.165 56.9191 264.668 57.2897 263.739 57.7376C262.667 57.7868 261.121 57.9549 260.119 57.6187C257.025 56.5814 256.821 53.186 259.985 52.0466Z"/><path fill="#2C2C2E" d="M292.306 94.0226C294.315 94.016 295.357 94.0282 297.332 94.3141C297.61 96.3715 298.383 98.4746 296.199 99.433C295.05 99.5511 293.119 99.786 292.071 99.4142C288.963 98.3111 289.4 95.0664 292.306 94.0226Z"/><path fill="#434E5C" d="M214.911 222.86L215.45 223.206C216.351 224.443 216.137 228.536 216.2 230.329C217.077 228.908 218.535 226.145 220.295 226.043L220.469 226.486C220.328 227.11 218.454 229.061 217.703 230.44C218.586 231.766 219.19 232.762 220.32 233.902C220.682 234.293 220.577 234.112 220.652 234.697L220.29 235.049C218.387 234.836 217.889 231.991 216.296 231.138C215.593 231.88 216.102 234.005 215.335 235.062C214.109 233.98 214.12 224.329 214.911 222.86Z"/><path fill="#434E5C" d="M223.072 225.923C224.906 227.554 222.073 232.37 224.806 233.374C225.319 233.563 226.889 233.28 227.498 233.184C227.534 231.797 227.444 227.098 228.552 226.286C229.126 226.876 228.958 226.673 229.003 227.687C228.98 229.268 229.462 233.805 228.711 234.647C227.378 234.718 224.413 235.029 223.335 234.426C222.175 233.056 222.181 227.439 223.072 225.923Z"/><path fill="#434E5C" d="M251.507 229.133C252.13 228.154 253.311 226.137 254.495 225.929C254.794 227.309 253.426 229.166 252.682 230.433C253.311 232.122 254.513 233.456 254.751 234.626L254.534 234.994C251.966 234.983 252.458 232.659 251.302 231.93L250.433 230.988C250.436 229.097 248.677 228.02 248.835 226.117L249.027 226.019C250.497 227.109 250.68 227.471 251.507 229.133Z"/><path fill="#2C2C2E" d="M280.378 226.263C282.504 227.031 285.212 225.823 286.029 227.292C285.054 228.456 283.085 227.625 282.014 228.353C281.564 229.17 281.665 230.118 281.675 231.063C281.64 232.079 281.747 234.405 280.984 235.01C280.254 233.877 280.48 228.161 280.378 226.263Z"/><path fill="#0A0A0B" d="M430.571 157.524C430.952 157.514 431.393 157.501 431.771 157.527C432.427 157.564 433.032 157.889 433.424 158.416C434.299 159.593 433.675 160.636 432.549 161.261C429.689 161.272 427.617 159.336 430.571 157.524Z"/><path fill="#434E5C" d="M287.797 222.924C287.986 223.105 288.236 223.533 288.245 223.868C288.339 227.372 288.39 231.098 288.137 234.588C287.906 234.898 287.72 235.145 287.582 235.331C286.807 233.916 286.749 224.422 287.797 222.924Z"/><path fill="#0A0A0B" d="M311.847 143.313C313.308 143.127 314.547 142.82 315.418 144.198C315.547 145.163 315.396 145.417 315.058 146.325C313.552 146.459 312.939 146.703 311.822 145.637C311.501 144.703 311.654 144.282 311.847 143.313Z"/><path fill="#223248" d="M250.433 230.988L251.302 231.93C250.575 233.332 250.067 234.754 248.423 235.008L248.104 234.632C248.223 234.12 249.901 231.968 250.433 230.988Z"/><path fill="#0A0A0B" fill-opacity="0.98039216" d="M225.367 227.467L225.667 227.874C225.911 229.123 225.869 230.882 225.541 232.113L225.13 231.678C224.884 230.19 224.981 228.919 225.367 227.467Z"/><path fill="#0A0A0B" fill-opacity="0.086274512" d="M362.537 67.3848C363.22 66.9906 365.434 67.0969 366.073 67.7046C365.101 67.8635 363.287 68.0456 362.537 67.3848Z"/><path fill="#0A0A0B" fill-opacity="0.97254902" d="M220.299 229.092L220.752 229.54C220.896 230.655 220.797 231.02 220.592 232.139L220.226 231.812C219.916 231.096 220.184 229.907 220.299 229.092Z"/><path fill="#0A0A0B" fill-opacity="0.40784314" d="M265.319 104.119L265.635 104.32C266.014 105.024 265.795 105.395 265.684 106.336L265.5 106.354C265.113 105.795 265.282 104.867 265.319 104.119Z"/></svg>